<svg width="36" height="36" viewBox="0 0 36 36" fill="none" xmlns="http://www.w3.org/2000/svg">
<g filter="url(#filter0_d_5499_2137)">
<path d="M19.707 23.3644C19.8945 23.1769 19.9998 22.9226 19.9998 22.6574C19.9998 22.3923 19.8945 22.138 19.707 21.9504L14.757 17.0004L19.707 12.0504C19.8892 11.8618 19.99 11.6092 19.9877 11.347C19.9854 11.0848 19.8803 10.834 19.6949 10.6486C19.5095 10.4632 19.2586 10.358 18.9964 10.3558C18.7343 10.3535 18.4817 10.4543 18.293 10.6364L12.636 16.2934C12.4486 16.481 12.3433 16.7353 12.3433 17.0004C12.3433 17.2656 12.4486 17.5199 12.636 17.7074L18.293 23.3644C18.4806 23.5519 18.7349 23.6572 19 23.6572C19.2652 23.6572 19.5195 23.5519 19.707 23.3644Z" fill="white"/>
</g>
<defs>
<filter id="filter0_d_5499_2137" x="0" y="0" width="36" height="36" filterUnits="userSpaceOnUse" color-interpolation-filters="sRGB">
<feFlood flood-opacity="0" result="BackgroundImageFix"/>
<feColorMatrix in="SourceAlpha" type="matrix" values="0 0 0 0 0 0 0 0 0 0 0 0 0 0 0 0 0 0 127 0" result="hardAlpha"/>
<feOffset dx="1" dy="1"/>
<feGaussianBlur stdDeviation="5"/>
<feComposite in2="hardAlpha" operator="out"/>
<feColorMatrix type="matrix" values="0 0 0 0 1 0 0 0 0 1 0 0 0 0 1 0 0 0 0.2 0"/>
<feBlend mode="normal" in2="BackgroundImageFix" result="effect1_dropShadow_5499_2137"/>
<feBlend mode="normal" in="SourceGraphic" in2="effect1_dropShadow_5499_2137" result="shape"/>
</filter>
</defs>
</svg>
