<svg width="40" height="43" viewBox="0 0 40 43" fill="none" xmlns="http://www.w3.org/2000/svg">
<g filter="url(#filter0_d_5894_11217)">
<path d="M19.9998 21.7099C18.0353 21.7099 16.1512 20.9336 14.762 19.5519C13.3729 18.1702 12.5924 16.2962 12.5924 14.3422H15.5554C15.5554 15.5146 16.0236 16.639 16.8571 17.468C17.6906 18.297 18.8211 18.7628 19.9998 18.7628C21.1786 18.7628 22.309 18.297 23.1425 17.468C23.976 16.639 24.4443 15.5146 24.4443 14.3422H27.4072C27.4072 16.2962 26.6268 18.1702 25.2377 19.5519C23.8485 20.9336 21.9644 21.7099 19.9998 21.7099ZM19.9998 6.97443C21.1786 6.97443 22.309 7.44018 23.1425 8.26921C23.976 9.09824 24.4443 10.2226 24.4443 11.3951H15.5554C15.5554 10.2226 16.0236 9.09824 16.8571 8.26921C17.6906 7.44018 18.8211 6.97443 19.9998 6.97443ZM30.3702 11.3951H27.4072C27.4072 10.4275 27.2156 9.46946 26.8434 8.57556C26.4711 7.68167 25.9255 6.86946 25.2377 6.1853C24.5498 5.50114 23.7332 4.95844 22.8345 4.58818C21.9358 4.21792 20.9726 4.02734 19.9998 4.02734C18.0353 4.02734 16.1512 4.80358 14.762 6.1853C13.3729 7.56702 12.5924 9.44103 12.5924 11.3951H9.62947C7.98502 11.3951 6.6665 12.7065 6.6665 14.3422V32.0247C6.6665 32.8063 6.97867 33.5559 7.53434 34.1086C8.09 34.6613 8.84364 34.9718 9.62947 34.9718H30.3702C31.156 34.9718 31.9097 34.6613 32.4653 34.1086C33.021 33.5559 33.3332 32.8063 33.3332 32.0247V14.3422C33.3332 13.5605 33.021 12.8109 32.4653 12.2583C31.9097 11.7056 31.156 11.3951 30.3702 11.3951Z" fill="#FF7A00"/>
</g>
<defs>
<filter id="filter0_d_5894_11217" x="2.6665" y="4.02734" width="34.6665" height="38.9453" filterUnits="userSpaceOnUse" color-interpolation-filters="sRGB">
<feFlood flood-opacity="0" result="BackgroundImageFix"/>
<feColorMatrix in="SourceAlpha" type="matrix" values="0 0 0 0 0 0 0 0 0 0 0 0 0 0 0 0 0 0 127 0" result="hardAlpha"/>
<feOffset dy="4"/>
<feGaussianBlur stdDeviation="2"/>
<feComposite in2="hardAlpha" operator="out"/>
<feColorMatrix type="matrix" values="0 0 0 0 0 0 0 0 0 0 0 0 0 0 0 0 0 0 0.25 0"/>
<feBlend mode="normal" in2="BackgroundImageFix" result="effect1_dropShadow_5894_11217"/>
<feBlend mode="normal" in="SourceGraphic" in2="effect1_dropShadow_5894_11217" result="shape"/>
</filter>
</defs>
</svg>
