<svg width="30" height="30" viewBox="0 0 30 30" fill="none" xmlns="http://www.w3.org/2000/svg">
<path d="M13.6725 3.20977C14.4562 2.60977 15.5456 2.60977 16.3294 3.20977L25.6331 10.3216C26.8181 11.2273 26.1825 13.1173 24.6938 13.1248H5.30625C3.81937 13.1173 3.18187 11.2273 4.36875 10.3216L13.6725 3.20977ZM15 9.84352C15.373 9.84352 15.7306 9.69536 15.9944 9.43163C16.2581 9.16791 16.4062 8.81023 16.4062 8.43727C16.4062 8.0643 16.2581 7.70662 15.9944 7.4429C15.7306 7.17917 15.373 7.03102 15 7.03102C14.627 7.03102 14.2694 7.17917 14.0056 7.4429C13.7419 7.70662 13.5938 8.0643 13.5938 8.43727C13.5938 8.81023 13.7419 9.16791 14.0056 9.43163C14.2694 9.69536 14.627 9.84352 15 9.84352ZM6.5625 14.9998V20.6248H9.375V14.9998H6.5625ZM11.25 14.9998V20.6248H14.0625V14.9998H11.25ZM15.9375 14.9998V20.6248H18.75V14.9998H15.9375ZM20.625 14.9998V20.6248H23.4375V14.9998H20.625ZM3.75 24.8435C3.75 23.5498 4.8 22.4998 6.09375 22.4998H23.9062C25.2 22.4998 26.25 23.5498 26.25 24.8435V25.3123C26.25 25.5609 26.1512 25.7994 25.9754 25.9752C25.7996 26.151 25.5611 26.2498 25.3125 26.2498H4.6875C4.43886 26.2498 4.2004 26.151 4.02459 25.9752C3.84877 25.7994 3.75 25.5609 3.75 25.3123V24.8435Z" fill="url(#paint0_linear_5894_11240)"/>
<defs>
<linearGradient id="paint0_linear_5894_11240" x1="15.0001" y1="2.75977" x2="15.0001" y2="26.2498" gradientUnits="userSpaceOnUse">
<stop stop-color="#6D2EC2"/>
<stop offset="1" stop-color="#B50189"/>
</linearGradient>
</defs>
</svg>
