<svg width="40" height="40" viewBox="0 0 40 40" fill="none" xmlns="http://www.w3.org/2000/svg">
<g clip-path="url(#clip0_7503_8096)">
<g filter="url(#filter0_d_7503_8096)">
<path d="M13.7033 5.44435C13.9367 5.41602 14.195 5.41602 14.495 5.41602H25.505C25.805 5.41602 26.0633 5.41602 26.2967 5.44435C27.1249 5.5474 27.8952 5.92382 28.4853 6.51401C29.0755 7.1042 29.452 7.87441 29.555 8.70268L29.56 8.74935H30.9033C31.2567 8.74602 32.0317 8.73935 32.6717 9.16768C33.5 9.71935 33.75 10.6677 33.75 11.666C33.75 16.2093 31.3283 19.2427 28.2367 20.9277C26.5117 24.0677 23.325 26.2493 20 26.2493C17.4683 26.2493 15.0667 24.8793 13.3383 22.9843C12.764 22.3578 12.2599 21.6704 11.835 20.9343C8.745 19.2577 6.25 16.2277 6.25 11.666C6.25 10.666 6.5 9.71935 7.32667 9.16768C7.96833 8.73935 8.74333 8.74602 9.09667 8.74935H10.44L10.445 8.70268C10.548 7.87441 10.9245 7.1042 11.5147 6.51401C12.1048 5.92382 12.8751 5.5474 13.7033 5.44435ZM31.22 11.2577C31.0913 11.2499 30.9623 11.2471 30.8333 11.2493H29.5783L29.525 16.7327C30.5883 15.4527 31.25 13.7827 31.25 11.666C31.25 11.4693 31.235 11.3393 31.22 11.2577ZM8.75 11.666C8.75 13.7277 9.39667 15.366 10.4333 16.636C10.3233 15.3927 10.3533 14.1293 10.3833 12.8727C10.3989 12.3282 10.4083 11.7871 10.4117 11.2493H9.16667C8.985 11.2493 8.87 11.2493 8.78167 11.2577C8.75824 11.3925 8.74764 11.5292 8.75 11.666ZM20.3833 10.9243C20.3513 10.8492 20.2979 10.7851 20.2297 10.74C20.1616 10.695 20.0817 10.671 20 10.671C19.9183 10.671 19.8384 10.695 19.7702 10.74C19.7021 10.7851 19.6487 10.8492 19.6167 10.9243L18.775 12.9443C18.7456 13.0148 18.6975 13.0759 18.6357 13.1209C18.574 13.1659 18.5011 13.193 18.425 13.1993L16.2433 13.3743C16.1613 13.3808 16.083 13.4115 16.0183 13.4625C15.9537 13.5134 15.9055 13.5824 15.8801 13.6607C15.8546 13.7389 15.8528 13.823 15.8751 13.9023C15.8973 13.9815 15.9425 14.0524 16.005 14.106L17.6667 15.5293C17.7247 15.5793 17.7679 15.6443 17.7914 15.7173C17.815 15.7902 17.8179 15.8682 17.8 15.9427L17.2933 18.0693C17.2738 18.1496 17.2786 18.2339 17.307 18.3114C17.3355 18.3889 17.3863 18.4563 17.4531 18.5049C17.5199 18.5534 17.5996 18.5811 17.6822 18.5843C17.7647 18.5874 17.8463 18.566 17.9167 18.5227L19.7833 17.3827C19.8486 17.3429 19.9236 17.3219 20 17.3219C20.0764 17.3219 20.1514 17.3429 20.2167 17.3827L22.0833 18.5227C22.1537 18.566 22.2353 18.5874 22.3178 18.5843C22.4004 18.5811 22.4801 18.5534 22.5469 18.5049C22.6137 18.4563 22.6645 18.3889 22.693 18.3114C22.7214 18.2339 22.7262 18.1496 22.7067 18.0693L22.1983 15.9427C22.1804 15.8682 22.1834 15.7902 22.2069 15.7173C22.2304 15.6443 22.2736 15.5793 22.3317 15.5293L23.995 14.106C24.0581 14.0526 24.1038 13.9815 24.1264 13.902C24.149 13.8225 24.1474 13.738 24.1218 13.6594C24.0963 13.5808 24.0479 13.5115 23.9829 13.4605C23.9179 13.4094 23.8391 13.3789 23.7567 13.3727L21.5767 13.1993C21.5003 13.1933 21.427 13.1663 21.365 13.1213C21.3029 13.0763 21.2545 13.0151 21.225 12.9443L20.3833 10.9243ZM20 27.0827C20.3315 27.0827 20.6495 27.2144 20.8839 27.4488C21.1183 27.6832 21.25 28.0012 21.25 28.3327V32.0827H26.6667C26.9982 32.0827 27.3161 32.2144 27.5506 32.4488C27.785 32.6832 27.9167 33.0012 27.9167 33.3327C27.9167 33.6642 27.785 33.9821 27.5506 34.2166C27.3161 34.451 26.9982 34.5827 26.6667 34.5827H13.3333C13.0018 34.5827 12.6839 34.451 12.4494 34.2166C12.215 33.9821 12.0833 33.6642 12.0833 33.3327C12.0833 33.0012 12.215 32.6832 12.4494 32.4488C12.6839 32.2144 13.0018 32.0827 13.3333 32.0827H18.75V28.3327C18.75 28.0012 18.8817 27.6832 19.1161 27.4488C19.3505 27.2144 19.6685 27.0827 20 27.0827Z" fill="#FFAE00"/>
</g>
</g>
<defs>
<filter id="filter0_d_7503_8096" x="2.25" y="3.41602" width="35.5" height="37.166" filterUnits="userSpaceOnUse" color-interpolation-filters="sRGB">
<feFlood flood-opacity="0" result="BackgroundImageFix"/>
<feColorMatrix in="SourceAlpha" type="matrix" values="0 0 0 0 0 0 0 0 0 0 0 0 0 0 0 0 0 0 127 0" result="hardAlpha"/>
<feOffset dy="2"/>
<feGaussianBlur stdDeviation="2"/>
<feComposite in2="hardAlpha" operator="out"/>
<feColorMatrix type="matrix" values="0 0 0 0 0 0 0 0 0 0 0 0 0 0 0 0 0 0 0.15 0"/>
<feBlend mode="normal" in2="BackgroundImageFix" result="effect1_dropShadow_7503_8096"/>
<feBlend mode="normal" in="SourceGraphic" in2="effect1_dropShadow_7503_8096" result="shape"/>
</filter>
<clipPath id="clip0_7503_8096">
<rect width="40" height="40" fill="white"/>
</clipPath>
</defs>
</svg>
