<svg width="41" height="46" viewBox="0 0 41 46" fill="none" xmlns="http://www.w3.org/2000/svg">
<g filter="url(#filter0_d_5919_8847)">
<path d="M18.615 20.0793V11.2064H16.1207C13.3579 11.2064 11.9014 9.415 11.9014 7.67429C11.9014 5.86643 13.2407 4.795 15.0321 4.795C17.0914 4.795 18.6986 6.385 18.6986 9.04714V11.2064H21.4943V9.04714C21.4943 6.385 23.1014 4.795 25.1607 4.795C26.9521 4.795 28.3079 5.86643 28.3079 7.67357C28.3079 9.415 26.8007 11.2064 24.0721 11.2064H21.5779V20.08H33.3807C35.205 20.08 36.1929 19.3771 36.1929 17.5857V13.7014C36.1929 11.9271 35.205 11.2071 33.3807 11.2071H29.48C30.5179 10.27 31.1371 8.99714 31.1371 7.55714C31.1371 4.32643 28.5757 2 25.3279 2C22.9171 2 20.9586 3.33857 20.105 5.71643C19.2507 3.33929 17.2757 2 14.865 2C11.6336 2 9.05571 4.32643 9.05571 7.55714C9.05571 8.99714 9.65857 10.27 10.7129 11.2071H6.81286C5.08786 11.2071 4 11.9271 4 13.7014V17.5857C4 19.3771 5.00429 20.08 6.81214 20.08L18.615 20.0793ZM18.615 37.3893V21.8707H6.39357V33.1371C6.39357 35.9329 8.03429 37.3893 10.83 37.3893H18.615ZM21.5779 21.8707V37.3893H29.3629C32.1586 37.3893 33.7986 35.9329 33.7986 33.1371V21.8707H21.5779Z" fill="#FF2D55"/>
</g>
<defs>
<filter id="filter0_d_5919_8847" x="0" y="2" width="40.1929" height="43.3887" filterUnits="userSpaceOnUse" color-interpolation-filters="sRGB">
<feFlood flood-opacity="0" result="BackgroundImageFix"/>
<feColorMatrix in="SourceAlpha" type="matrix" values="0 0 0 0 0 0 0 0 0 0 0 0 0 0 0 0 0 0 127 0" result="hardAlpha"/>
<feOffset dy="4"/>
<feGaussianBlur stdDeviation="2"/>
<feComposite in2="hardAlpha" operator="out"/>
<feColorMatrix type="matrix" values="0 0 0 0 0 0 0 0 0 0 0 0 0 0 0 0 0 0 0.25 0"/>
<feBlend mode="normal" in2="BackgroundImageFix" result="effect1_dropShadow_5919_8847"/>
<feBlend mode="normal" in="SourceGraphic" in2="effect1_dropShadow_5919_8847" result="shape"/>
</filter>
</defs>
</svg>
