<svg width="31" height="32" viewBox="0 0 31 32" fill="none" xmlns="http://www.w3.org/2000/svg">
<path d="M18.5938 5.43648C17.3797 5.01976 15.6297 3.5596 15.3519 0.748666C15.307 0.331947 14.9395 0.0136658 14.5042 0.00163451C11.2514 -0.0858655 9.12953 3.36163 8.27203 5.07445C8.01609 5.5907 7.47687 5.89804 7.10938 5.46929C6.5625 4.83273 6.71562 2.83117 5.46875 3.39117C1.90313 4.9946 0 9.34445 0 14.2193C0 22.5755 12.5672 29.2857 14.9286 30.5271C15.0463 30.5916 15.1783 30.6255 15.3125 30.6255C15.4467 30.6255 15.5787 30.5916 15.6964 30.5271C18.0698 29.2857 30.625 22.5755 30.625 14.2193C30.625 8.4771 26.0466 4.21913 20.9333 2.23179C20.3755 2.01304 19.6875 2.68898 19.6875 3.28179V4.3471C19.6766 4.91804 19.1406 5.62351 18.5938 5.43648Z" fill="#F9C23C"/>
<path d="M20.0135 7.26244C17.3579 7.74697 15.3126 10.9702 15.3126 10.9702C15.3126 10.9702 13.2782 7.73603 10.6116 7.26244C4.04147 6.079 1.33007 12.0082 2.42272 16.4281C4.38054 24.2943 15.3126 31.1718 15.3126 31.1718C15.3126 31.1718 26.2457 24.2954 28.2024 16.4281C29.2962 12.0082 26.5837 6.079 20.0135 7.26244Z" fill="#F92F60"/>
</svg>
