<svg width="24" height="26" viewBox="0 0 24 26" fill="none" xmlns="http://www.w3.org/2000/svg">
<path d="M0 22.6042V9.47917C0 9.01736 0.103541 8.57986 0.310625 8.16667C0.517708 7.75347 0.803056 7.41319 1.16667 7.14583L9.91667 0.583333C10.4271 0.194445 11.0104 0 11.6667 0C12.3229 0 12.9062 0.194445 13.4167 0.583333L22.1667 7.14583C22.5313 7.41319 22.8171 7.75347 23.0242 8.16667C23.2313 8.57986 23.3343 9.01736 23.3333 9.47917V22.6042C23.3333 23.4062 23.0475 24.0931 22.4758 24.6648C21.9042 25.2365 21.2178 25.5218 20.4167 25.5208H16.0417C15.6285 25.5208 15.2824 25.3808 15.0033 25.1008C14.7243 24.8208 14.5843 24.4747 14.5833 24.0625V16.7708C14.5833 16.3576 14.4433 16.0115 14.1633 15.7325C13.8833 15.4535 13.5372 15.3135 13.125 15.3125H10.2083C9.79514 15.3125 9.44903 15.4525 9.17 15.7325C8.89097 16.0125 8.75097 16.3586 8.75 16.7708V24.0625C8.75 24.4757 8.61 24.8223 8.33 25.1023C8.05 25.3823 7.70389 25.5218 7.29167 25.5208H2.91667C2.11458 25.5208 1.42819 25.2355 0.8575 24.6648C0.286805 24.0941 0.000972222 23.4072 0 22.6042Z" fill="url(#paint0_linear_5924_8331)"/>
<defs>
<linearGradient id="paint0_linear_5924_8331" x1="11.6667" y1="0" x2="11.6667" y2="25.5208" gradientUnits="userSpaceOnUse">
<stop stop-color="#6D2EC2"/>
<stop offset="1" stop-color="#B50189"/>
</linearGradient>
</defs>
</svg>
