<svg width="40" height="40" viewBox="0 0 40 40" fill="none" xmlns="http://www.w3.org/2000/svg">
<g clip-path="url(#clip0_5894_11229)">
<g filter="url(#filter0_d_5894_11229)">
<path d="M28.3333 5C29.6086 4.99993 30.8358 5.48721 31.7637 6.36214C32.6916 7.23707 33.2501 8.43351 33.3249 9.70667L33.3333 10V17.25L34.3233 16.81C35.3466 16.355 36.5266 17.06 36.6566 18.14L36.6666 18.3333V31.6667C36.6669 32.5076 36.3492 33.3176 35.7774 33.9342C35.2056 34.5509 34.4219 34.9286 33.5833 34.9917L33.3333 35H6.66659C5.82563 35.0003 5.01564 34.6827 4.39901 34.1108C3.78237 33.539 3.40466 32.7553 3.34159 31.9167L3.33325 31.6667V18.3333C3.33325 17.2133 4.45825 16.4217 5.49492 16.7417L5.67825 16.81L6.66659 17.25V10C6.66651 8.72465 7.15379 7.49748 8.02873 6.56957C8.90366 5.64166 10.1001 5.08315 11.3733 5.00833L11.6666 5H28.3333ZM28.3333 8.33333H11.6666C11.2246 8.33333 10.8006 8.50893 10.4881 8.82149C10.1755 9.13405 9.99992 9.55797 9.99992 10V18.7317L19.9999 23.1767L29.9999 18.7317V10C29.9999 9.55797 29.8243 9.13405 29.5118 8.82149C29.1992 8.50893 28.7753 8.33333 28.3333 8.33333ZM19.9999 13.3333C20.4247 13.3338 20.8333 13.4965 21.1422 13.7881C21.4511 14.0797 21.637 14.4783 21.6619 14.9023C21.6868 15.3264 21.5488 15.744 21.2761 16.0697C21.0035 16.3955 20.6167 16.6048 20.1949 16.655L19.9999 16.6667H16.6666C16.2418 16.6662 15.8332 16.5035 15.5243 16.2119C15.2154 15.9203 15.0295 15.5217 15.0046 15.0977C14.9797 14.6736 15.1177 14.256 15.3904 13.9303C15.663 13.6045 16.0498 13.3952 16.4716 13.345L16.6666 13.3333H19.9999Z" fill="#0094DA"/>
</g>
</g>
<defs>
<filter id="filter0_d_5894_11229" x="-0.666748" y="5" width="41.3333" height="38" filterUnits="userSpaceOnUse" color-interpolation-filters="sRGB">
<feFlood flood-opacity="0" result="BackgroundImageFix"/>
<feColorMatrix in="SourceAlpha" type="matrix" values="0 0 0 0 0 0 0 0 0 0 0 0 0 0 0 0 0 0 127 0" result="hardAlpha"/>
<feOffset dy="4"/>
<feGaussianBlur stdDeviation="2"/>
<feComposite in2="hardAlpha" operator="out"/>
<feColorMatrix type="matrix" values="0 0 0 0 0 0 0 0 0 0 0 0 0 0 0 0 0 0 0.25 0"/>
<feBlend mode="normal" in2="BackgroundImageFix" result="effect1_dropShadow_5894_11229"/>
<feBlend mode="normal" in="SourceGraphic" in2="effect1_dropShadow_5894_11229" result="shape"/>
</filter>
<clipPath id="clip0_5894_11229">
<rect width="40" height="40" fill="white"/>
</clipPath>
</defs>
</svg>
