<svg width="30" height="30" viewBox="0 0 30 30" fill="none" xmlns="http://www.w3.org/2000/svg">
<path d="M15 3.75C8.78613 3.75 3.75 8.78613 3.75 15V25.5469C3.75 25.9365 4.06348 26.25 4.45312 26.25H9.84375C10.8779 26.25 11.7188 25.4092 11.7188 24.375V18.2812C11.7188 17.2471 10.8779 16.4062 9.84375 16.4062H5.85938V15C5.85938 9.95215 9.95215 5.85938 15 5.85938C20.0479 5.85938 24.1406 9.95215 24.1406 15V16.4062H20.1562C19.1221 16.4062 18.2812 17.2471 18.2812 18.2812V24.375C18.2812 25.4092 19.1221 26.25 20.1562 26.25H25.5469C25.9365 26.25 26.25 25.9365 26.25 25.5469V15C26.25 8.78613 21.2139 3.75 15 3.75Z" fill="url(#paint0_linear_5894_11245)"/>
<defs>
<linearGradient id="paint0_linear_5894_11245" x1="15" y1="3.75" x2="15" y2="26.25" gradientUnits="userSpaceOnUse">
<stop stop-color="#6D2EC2"/>
<stop offset="1" stop-color="#B50189"/>
</linearGradient>
</defs>
</svg>
