<svg width="30" height="30" viewBox="0 0 30 30" fill="none" xmlns="http://www.w3.org/2000/svg">
<path d="M27.0298 17.3166C27.2625 17.488 27.4361 17.7276 27.5263 18.0021C27.6165 18.2767 27.619 18.5725 27.5333 18.8485C26.939 20.7484 25.9282 22.4917 24.5745 23.9513C24.3791 24.1609 24.1235 24.3047 23.8429 24.3629C23.5624 24.4212 23.2707 24.3911 23.0079 24.2766L21.1751 23.4723C20.9749 23.3832 20.7566 23.3421 20.5376 23.3523C20.3195 23.365 20.1074 23.4292 19.9189 23.5398C19.7301 23.649 19.5699 23.8015 19.4514 23.9847C19.3329 24.1679 19.2596 24.3765 19.2373 24.5935L19.017 26.5904C18.9853 26.8747 18.8665 27.1422 18.6768 27.3563C18.4872 27.5705 18.236 27.7208 17.9576 27.7866C16.0114 28.2507 13.9826 28.2507 12.0364 27.7866C11.76 27.7198 11.5107 27.5698 11.3221 27.3569C11.1335 27.144 11.0147 26.8785 10.9817 26.596L10.7614 24.6029C10.7233 24.2632 10.5614 23.9495 10.3067 23.7216C10.1076 23.546 9.86275 23.4304 9.60062 23.3881C9.33849 23.3457 9.06973 23.3785 8.82545 23.4826L6.99263 24.2879C6.73067 24.4022 6.43973 24.4327 6.15975 24.3752C5.87977 24.3176 5.62447 24.1748 5.42888 23.9663C4.073 22.5052 3.06083 20.7596 2.46638 18.857C2.38115 18.5813 2.38373 18.286 2.47376 18.0119C2.56379 17.7377 2.73682 17.4984 2.96888 17.327L4.58607 16.1316C4.76278 16.0021 4.90648 15.8327 5.00554 15.6373C5.10459 15.4418 5.15621 15.2258 5.15621 15.0066C5.15621 14.7875 5.10459 14.5715 5.00554 14.376C4.90648 14.1806 4.76278 14.0112 4.58607 13.8816L2.96888 12.6882C2.73806 12.5177 2.56578 12.2798 2.47578 12.0073C2.38579 11.7348 2.38251 11.4411 2.46638 11.1666C3.06066 9.26557 4.07254 7.52145 5.42795 6.06195C5.5592 5.92039 5.71857 5.80789 5.8967 5.73289C6.0702 5.6594 6.25671 5.62154 6.44513 5.62154C6.63356 5.62154 6.82007 5.6594 6.99357 5.73289L8.81888 6.53727C9.01969 6.62352 9.23791 6.66155 9.45606 6.64832C9.67421 6.63508 9.88623 6.57094 10.0751 6.46104C10.264 6.35114 10.4246 6.19853 10.5439 6.01543C10.6633 5.83234 10.7381 5.62384 10.7623 5.40664L10.9836 3.41727C11.0157 3.13001 11.1367 2.85994 11.3296 2.64467C11.5225 2.42941 11.7778 2.27968 12.0598 2.21633C13.0287 2.00256 14.017 1.88884 15.0092 1.87695C15.9954 1.8882 16.9779 2.00164 17.9408 2.21633C18.2234 2.27923 18.4792 2.42923 18.6721 2.64518C18.865 2.86112 18.9853 3.13215 19.0161 3.42008L19.2373 5.40758C19.2608 5.62445 19.3349 5.83276 19.4538 6.01567C19.5727 6.19857 19.7329 6.35094 19.9215 6.46046C20.1102 6.56999 20.322 6.63358 20.5397 6.64611C20.7575 6.65863 20.9752 6.61974 21.1751 6.53258L22.9995 5.72914C23.2626 5.61467 23.5547 5.58439 23.8356 5.64247C24.1166 5.70054 24.3727 5.84412 24.5689 6.05352C25.9235 7.51149 26.9347 9.25405 27.5286 11.1535C27.6144 11.4289 27.612 11.7243 27.5218 11.9983C27.4315 12.2723 27.2579 12.5112 27.0251 12.6816L25.4126 13.8751C25.2352 14.0035 25.0907 14.1721 24.9909 14.367C24.8912 14.562 24.839 14.7778 24.8386 14.9968C24.8382 15.2158 24.8897 15.4318 24.9888 15.6271C25.088 15.8223 25.2319 15.9914 25.4089 16.1204L27.0298 17.3166ZM14.9998 18.7491C15.9944 18.7491 16.9482 18.3541 17.6515 17.6508C18.3547 16.9475 18.7498 15.9937 18.7498 14.9991C18.7498 14.0046 18.3547 13.0508 17.6515 12.3475C16.9482 11.6442 15.9944 11.2491 14.9998 11.2491C14.0053 11.2491 13.0514 11.6442 12.3482 12.3475C11.6449 13.0508 11.2498 14.0046 11.2498 14.9991C11.2498 15.9937 11.6449 16.9475 12.3482 17.6508C13.0514 18.3541 14.0053 18.7491 14.9998 18.7491Z" fill="url(#paint0_linear_5894_11250)"/>
<defs>
<linearGradient id="paint0_linear_5894_11250" x1="15" y1="1.87695" x2="15" y2="28.1347" gradientUnits="userSpaceOnUse">
<stop stop-color="#6D2EC2"/>
<stop offset="1" stop-color="#B50189"/>
</linearGradient>
</defs>
</svg>
