<svg width="26" height="26" viewBox="0 0 26 26" fill="none" xmlns="http://www.w3.org/2000/svg">
<path d="M0 12.8571C0 5.75625 5.75625 0 12.8571 0C19.958 0 25.7143 5.75625 25.7143 12.8571C25.7143 19.958 19.958 25.7143 12.8571 25.7143C5.75625 25.7143 0 19.958 0 12.8571ZM13.1641 13.7914C14.7573 14.1836 15.2346 14.7032 15.2346 15.5807C15.2346 16.4925 14.6212 17.1825 13.1641 17.2934V13.7914ZM12.2014 11.8237C10.8386 11.4825 10.327 10.912 10.327 10.1362C10.327 9.36107 10.9746 8.65393 12.202 8.50071L12.2014 11.8237ZM13.1641 12.0536V8.50071C14.2548 8.63679 15.0214 9.25875 15.1323 10.3329H16.9045C16.8364 8.39893 15.2941 7.12071 13.1641 6.94982V5.51036H12.2014V6.94982C10.0543 7.11214 8.52107 8.37268 8.52107 10.2814C8.52107 12.0107 9.68839 12.9825 11.8521 13.485L12.2014 13.5702V17.2848C10.83 17.1402 10.1823 16.4073 10.0291 15.4104H8.26554C8.32446 17.4552 10.0377 18.6734 12.2014 18.8357V20.2666H13.1641V18.8357C15.337 18.682 17.0411 17.498 17.0411 15.4104C17.0411 13.5959 15.8143 12.6755 13.5734 12.1559L13.1641 12.0536Z" fill="url(#paint0_linear_7078_3922)"/>
<defs>
<linearGradient id="paint0_linear_7078_3922" x1="12.8571" y1="0" x2="12.8571" y2="25.7143" gradientUnits="userSpaceOnUse">
<stop stop-color="#6D2EC2"/>
<stop offset="1" stop-color="#B50189"/>
</linearGradient>
</defs>
</svg>
