<svg width="40" height="40" viewBox="0 0 40 40" fill="none" xmlns="http://www.w3.org/2000/svg">
<path d="M20 0C8.735 0 0 8.25477 0 19.3995C0 25.2293 2.39 30.2692 6.28 33.7491C6.605 34.0391 6.805 34.4491 6.815 34.889L6.925 38.4489C6.93301 38.7109 7.00524 38.9668 7.13533 39.1943C7.26543 39.4218 7.44941 39.6138 7.67111 39.7536C7.89281 39.8933 8.14544 39.9764 8.40679 39.9957C8.66815 40.0149 8.93023 39.9697 9.17 39.8639L13.14 38.114C13.475 37.964 13.855 37.939 14.21 38.034C16.035 38.5339 17.975 38.8039 20 38.8039C31.265 38.8039 40 30.5492 40 19.4045C40 8.25977 31.265 0 20 0Z" fill="url(#paint0_radial_5699_6654)"/>
<path d="M7.9899 25.0742L13.8649 15.7544C14.0859 15.4036 14.3773 15.1023 14.7206 14.8697C15.0639 14.6371 15.4517 14.4782 15.8595 14.403C16.2673 14.3278 16.6863 14.338 17.09 14.433C17.4937 14.5279 17.8733 14.7054 18.2049 14.9545L22.8799 18.4594C23.0886 18.6156 23.3425 18.6996 23.6032 18.6987C23.8639 18.6978 24.1173 18.6121 24.3249 18.4544L30.6349 13.6645C31.4749 13.0245 32.5749 14.0345 32.0149 14.9295L26.1349 24.2442C25.9139 24.5951 25.6225 24.8963 25.2792 25.129C24.9359 25.3616 24.5481 25.5205 24.1403 25.5956C23.7325 25.6708 23.3135 25.6606 22.9098 25.5657C22.5061 25.4708 22.1265 25.2932 21.7949 25.0442L17.1199 21.5393C16.9112 21.383 16.6573 21.299 16.3966 21.2999C16.1358 21.3008 15.8825 21.3866 15.6749 21.5443L9.3649 26.3342C8.5249 26.9741 7.4249 25.9692 7.9899 25.0742Z" fill="white"/>
<defs>
<radialGradient id="paint0_radial_5699_6654" cx="0" cy="0" r="1" gradientUnits="userSpaceOnUse" gradientTransform="translate(6.7 39.9989) scale(44 43.9988)">
<stop stop-color="#0099FF"/>
<stop offset="0.6" stop-color="#A033FF"/>
<stop offset="0.9" stop-color="#FF5280"/>
<stop offset="1" stop-color="#FF7061"/>
</radialGradient>
</defs>
</svg>
