<svg width="40" height="40" viewBox="0 0 40 40" fill="none" xmlns="http://www.w3.org/2000/svg">
<path d="M37.1618 29.4658C30.9675 26.4664 29.9803 21.8354 29.9363 21.4919C29.8832 21.0758 29.8229 20.7487 30.2817 20.3254C30.7243 19.9165 32.6875 18.701 33.2322 18.3207C34.1326 17.691 34.5291 17.0623 34.2368 16.2894C34.0324 15.7548 33.5347 15.5534 33.0104 15.5534C32.8451 15.5539 32.6802 15.5724 32.5189 15.6086C31.5296 15.8233 30.5689 16.3191 30.013 16.453C29.9462 16.4702 29.8775 16.4795 29.8086 16.4806C29.5122 16.4806 29.3998 16.3487 29.4284 15.992C29.4979 14.9104 29.645 12.7993 29.4744 10.8273C29.2403 8.11417 28.3655 6.76986 27.3282 5.58093C26.8264 5.00436 24.4963 2.52734 19.9995 2.52734C15.5028 2.52734 13.1757 5.00436 12.677 5.57377C11.6366 6.7627 10.7628 8.10701 10.5308 10.8202C10.3602 12.7922 10.5135 14.9022 10.5768 15.9848C10.5973 16.3242 10.493 16.4735 10.1966 16.4735C10.1277 16.4723 10.0591 16.463 9.99224 16.4458C9.4373 16.3119 8.47664 15.8161 7.48735 15.6014C7.32598 15.5652 7.16115 15.5467 6.99578 15.5462C6.46945 15.5462 5.97379 15.7507 5.76939 16.2823C5.47711 17.0551 5.87159 17.6838 6.77503 18.3136C7.31975 18.6939 9.28298 19.9084 9.7255 20.3183C10.1834 20.7415 10.1241 21.0687 10.0709 21.4847C10.027 21.8333 9.03873 26.4643 2.84549 29.4586C2.48268 29.6344 1.8654 30.0066 2.95382 30.6077C4.66258 31.5523 5.80005 31.451 6.68407 32.0205C7.43421 32.504 6.99067 33.5467 7.53641 33.923C8.20683 34.386 10.1885 33.8902 12.7485 34.7357C14.8947 35.4431 16.1988 37.4417 20.0046 37.4417C23.8105 37.4417 25.1524 35.4339 27.2607 34.7357C29.8157 33.8902 31.8014 34.386 32.4729 33.923C33.0176 33.5467 32.5751 32.504 33.3252 32.0205C34.2092 31.451 35.3457 31.5523 37.0555 30.6077C38.1418 30.0137 37.5246 29.6416 37.1618 29.4658Z" fill="white"/>
<path d="M39.857 29.1135C39.579 28.357 39.0496 27.9522 38.4467 27.6169C38.3332 27.5504 38.229 27.4973 38.1401 27.4564C37.9602 27.3634 37.7762 27.2734 37.5933 27.1783C35.7139 26.1816 34.2463 24.9242 33.2284 23.4337C32.9393 23.0141 32.6886 22.5693 32.4793 22.1047C32.3924 21.8563 32.3965 21.7152 32.4588 21.5864C32.5207 21.4871 32.6025 21.4018 32.699 21.3359C33.022 21.1223 33.3551 20.9055 33.581 20.7593C33.9836 20.4987 34.3025 20.2922 34.5079 20.146C35.2795 19.6062 35.8191 19.0327 36.1564 18.3917C36.3917 17.9489 36.5289 17.4605 36.5587 16.9599C36.5885 16.4593 36.5102 15.9581 36.3291 15.4905C35.8181 14.1451 34.5478 13.3099 33.0087 13.3099C32.684 13.3096 32.3603 13.3439 32.0429 13.4121C31.9581 13.4305 31.8732 13.45 31.7905 13.4714C31.8048 12.5514 31.7843 11.5802 31.7026 10.6243C31.4123 7.26407 30.236 5.50266 29.0096 4.09803C28.2243 3.21783 27.2993 2.47316 26.2717 1.89397C24.4107 0.830786 22.3003 0.291016 19.9998 0.291016C17.6993 0.291016 15.5991 0.830786 13.736 1.89397C12.706 2.47333 11.7791 3.2195 10.993 4.10212C9.76665 5.50675 8.59034 7.27123 8.3001 10.6284C8.21834 11.5843 8.1979 12.5606 8.21118 13.4755C8.1284 13.454 8.0446 13.4346 7.95978 13.4162C7.64239 13.348 7.31864 13.3137 6.994 13.314C5.45387 13.314 4.18149 14.1492 3.67254 15.4945C3.49062 15.9624 3.41152 16.4639 3.44062 16.9651C3.46972 17.4662 3.60633 17.9552 3.84117 18.3989C4.17945 19.0399 4.71906 19.6134 5.49066 20.1531C5.69505 20.2962 6.01494 20.5028 6.4176 20.7665C6.63528 20.9076 6.95312 21.1141 7.26483 21.3206C7.37388 21.3911 7.46658 21.4842 7.53667 21.5935C7.60208 21.7275 7.60413 21.8716 7.50704 22.1374C7.30053 22.5922 7.05394 23.0277 6.77018 23.4388C5.77477 24.8955 4.35012 26.1305 2.53098 27.119C1.56725 27.6302 0.565704 27.9716 0.142601 29.1217C-0.176259 29.9896 0.0322263 30.9772 0.842662 31.8093C1.1401 32.1199 1.48508 32.3811 1.86465 32.5832C2.65443 33.0173 3.49424 33.3534 4.36545 33.584C4.54524 33.6304 4.71592 33.7068 4.87031 33.8099C5.16567 34.0686 5.12376 34.4581 5.51723 35.0285C5.71474 35.3233 5.96571 35.5785 6.25715 35.7809C7.08291 36.3513 8.01088 36.3871 8.99403 36.4249C9.88213 36.4587 10.8888 36.4975 12.0385 36.8768C12.5148 37.0342 13.0094 37.3389 13.5827 37.6946C14.9594 38.5411 16.8439 39.6993 19.9978 39.6993C23.1516 39.6993 25.0494 38.535 26.4363 37.6854C27.0055 37.3358 27.4971 37.0342 27.9601 36.8809C29.1098 36.5006 30.1164 36.4628 31.0046 36.429C31.9877 36.3912 32.9157 36.3554 33.7414 35.785C34.0866 35.5442 34.3742 35.23 34.5835 34.8649C34.8666 34.3834 34.8595 34.0471 35.1252 33.812C35.2701 33.7137 35.4303 33.6405 35.5994 33.5952C36.4825 33.364 37.3338 33.0247 38.1339 32.5852C38.5372 32.3688 38.9002 32.0845 39.207 31.7449L39.2172 31.7326C39.9776 30.9189 40.1687 29.96 39.857 29.1135ZM37.0537 30.6204C35.3439 31.565 34.2075 31.4638 33.3234 32.0332C32.5723 32.5167 33.0168 33.5595 32.4711 33.9357C31.8007 34.3988 29.819 33.903 27.259 34.7484C25.1475 35.4466 23.8006 37.4544 20.0029 37.4544C16.2052 37.4544 14.8899 35.4507 12.7437 34.7433C10.1887 33.8978 8.20301 34.3937 7.53156 33.9306C6.98685 33.5544 7.42937 32.5116 6.67923 32.0281C5.79419 31.4587 4.65774 31.5599 2.94898 30.6204C1.86056 30.0193 2.47784 29.6472 2.84065 29.4713C9.03388 26.4719 10.0221 21.8409 10.0661 21.4974C10.1192 21.0814 10.1785 20.7542 9.72066 20.331C9.27814 19.9221 7.3149 18.7066 6.77018 18.3263C5.86879 17.6966 5.47226 17.0679 5.76455 16.295C5.96895 15.7603 6.46768 15.5589 6.99093 15.5589C7.15631 15.5595 7.32114 15.578 7.48251 15.6142C8.47179 15.8288 9.43246 16.3246 9.9874 16.4586C10.0542 16.4757 10.1228 16.485 10.1918 16.4862C10.4882 16.4862 10.5924 16.3369 10.572 15.9975C10.5086 14.9149 10.3553 12.8049 10.526 10.8329C10.76 8.11973 11.6338 6.77541 12.6722 5.58649C13.1709 5.01503 15.5143 2.53801 19.9957 2.53801C24.4771 2.53801 26.8267 5.0048 27.3254 5.57422C28.3648 6.76315 29.2396 8.10746 29.4716 10.8206C29.6422 12.7926 29.4951 14.9037 29.4256 15.9852C29.4021 16.342 29.5094 16.4739 29.8058 16.4739C29.8747 16.4728 29.9434 16.4635 30.0102 16.4463C30.5661 16.3124 31.5268 15.8166 32.5161 15.6019C32.6774 15.5657 32.8423 15.5472 33.0076 15.5467C33.534 15.5467 34.0296 15.7511 34.234 16.2827C34.5263 17.0556 34.1318 17.6843 33.2294 18.314C32.6847 18.6943 30.7215 19.9088 30.2789 20.3187C29.8201 20.742 29.8804 21.0691 29.9335 21.4852C29.9775 21.8338 30.9647 26.4648 37.159 29.4591C37.5248 29.642 38.1421 30.0142 37.0537 30.6204Z" fill="black"/>
</svg>
