<svg width="30" height="30" viewBox="0 0 30 30" fill="none" xmlns="http://www.w3.org/2000/svg">
<path d="M0 15C0 6.71573 6.71573 0 15 0C23.2843 0 30 6.71573 30 15C30 23.2843 23.2843 30 15 30C6.71573 30 0 23.2843 0 15Z" fill="url(#paint0_linear_6773_27160)"/>
<path d="M15 4L6 8V14C6 19.55 9.84 24.74 15 26C20.16 24.74 24 19.55 24 14V8L15 4ZM15 7.9C15.5933 7.9 16.1734 8.07595 16.6667 8.40559C17.1601 8.73524 17.5446 9.20377 17.7716 9.75195C17.9987 10.3001 18.0581 10.9033 17.9424 11.4853C17.8266 12.0672 17.5409 12.6018 17.1213 13.0213C16.7018 13.4409 16.1672 13.7266 15.5853 13.8424C15.0033 13.9581 14.4001 13.8987 13.8519 13.6716C13.3038 13.4446 12.8352 13.0601 12.5056 12.5667C12.1759 12.0734 12 11.4933 12 10.9C12 10.1044 12.3161 9.34129 12.8787 8.77868C13.4413 8.21607 14.2044 7.9 15 7.9ZM15 15.8C17 15.8 21 16.89 21 18.88C20.3432 19.8701 19.4516 20.6823 18.4047 21.2442C17.3578 21.806 16.1881 22.1 15 22.1C13.8119 22.1 12.6422 21.806 11.5953 21.2442C10.5484 20.6823 9.65677 19.8701 9 18.88C9 16.89 13 15.8 15 15.8Z" fill="white"/>
<defs>
<linearGradient id="paint0_linear_6773_27160" x1="15" y1="0" x2="15" y2="30" gradientUnits="userSpaceOnUse">
<stop stop-color="#6D2EC2"/>
<stop offset="1" stop-color="#B50189"/>
</linearGradient>
</defs>
</svg>
