<svg width="30" height="30" viewBox="0 0 30 30" fill="none" xmlns="http://www.w3.org/2000/svg">
<path d="M0 15C0 6.71573 6.71573 0 15 0C23.2843 0 30 6.71573 30 15C30 23.2843 23.2843 30 15 30C6.71573 30 0 23.2843 0 15Z" fill="url(#paint0_linear_6773_27177)"/>
<g clip-path="url(#clip0_6773_27177)">
<path fill-rule="evenodd" clip-rule="evenodd" d="M9.21467 6C8.70318 6 8.21264 6.20319 7.85096 6.56487C7.48928 6.92654 7.28609 7.41708 7.28609 7.92857V19.3959L6.03381 23.154C5.9975 23.2632 5.99118 23.3801 6.01548 23.4926C6.03979 23.6051 6.09384 23.709 6.17199 23.7934C6.25015 23.8779 6.34954 23.9398 6.4598 23.9728C6.57005 24.0057 6.68713 24.0085 6.79881 23.9807L11.8645 22.7143H22.0718C22.5833 22.7143 23.0738 22.5111 23.4355 22.1494C23.7972 21.7877 24.0004 21.2972 24.0004 20.7857V7.92857C24.0004 7.41708 23.7972 6.92654 23.4355 6.56487C23.0738 6.20319 22.5833 6 22.0718 6H9.21467ZM12.8571 12.6086C12.4646 13.2546 12.3004 14.0138 12.3907 14.7643C12.4811 15.5148 12.8208 16.2133 13.3554 16.7477C13.89 17.2822 14.5885 17.6217 15.3391 17.7118C16.0896 17.802 16.8487 17.6375 17.4947 17.2449L12.8571 12.6086ZM12.1628 10.8934C11.2367 11.8295 10.7188 13.094 10.7223 14.4108C10.7258 15.7275 11.2504 16.9894 12.1815 17.9205C13.1126 18.8515 14.3744 19.3762 15.6912 19.3797C17.0079 19.3832 18.2725 18.8653 19.2085 17.9391C19.2508 17.9044 19.2895 17.8657 19.3242 17.8234C20.2504 16.8874 20.7683 15.6228 20.7648 14.3061C20.7613 12.9893 20.2366 11.7275 19.3055 10.7964C18.3745 9.86532 17.1126 9.34069 15.7959 9.33719C14.4791 9.33369 13.2145 9.85159 12.2785 10.7777C12.2362 10.8123 12.1974 10.8511 12.1628 10.8934ZM13.9937 11.472L18.63 16.1083C19.022 15.4623 19.1859 14.7035 19.0955 13.9533C19.0051 13.2031 18.6656 12.505 18.1313 11.9707C17.597 11.4364 16.8988 11.0968 16.1486 11.0064C15.3984 10.916 14.6396 11.08 13.9937 11.472Z" fill="white"/>
</g>
<defs>
<linearGradient id="paint0_linear_6773_27177" x1="15" y1="0" x2="15" y2="30" gradientUnits="userSpaceOnUse">
<stop stop-color="#6D2EC2"/>
<stop offset="1" stop-color="#B50189"/>
</linearGradient>
<clipPath id="clip0_6773_27177">
<rect width="18" height="18" fill="white" transform="translate(6 6)"/>
</clipPath>
</defs>
</svg>
