<svg width="30" height="30" viewBox="0 0 30 30" fill="none" xmlns="http://www.w3.org/2000/svg">
<path d="M0 15C0 6.71573 6.71573 0 15 0C23.2843 0 30 6.71573 30 15C30 23.2843 23.2843 30 15 30C6.71573 30 0 23.2843 0 15Z" fill="url(#paint0_linear_6773_27143)"/>
<path d="M15.0004 4C15.657 4 16.3072 4.12933 16.9138 4.3806C17.5204 4.63188 18.0716 5.00017 18.5359 5.46447C19.0002 5.92876 19.3685 6.47995 19.6198 7.08658C19.8711 7.69321 20.0004 8.34339 20.0004 9V15C20.0004 16.3261 19.4736 17.5979 18.5359 18.5355C17.5982 19.4732 16.3265 20 15.0004 20C13.6743 20 12.4025 19.4732 11.4648 18.5355C10.5272 17.5979 10.0004 16.3261 10.0004 15V9C10.0004 7.67392 10.5272 6.40215 11.4648 5.46447C12.4025 4.52678 13.6743 4 15.0004 4ZM5.19238 16.962L7.15438 16.569C7.51877 18.3814 8.49941 20.0118 9.92969 21.1832C11.36 22.3545 13.1517 22.9946 15.0004 22.9946C16.8491 22.9946 18.6408 22.3545 20.0711 21.1832C21.5014 20.0118 22.482 18.3814 22.8464 16.569L24.8084 16.961C23.8964 21.545 19.8524 25 15.0004 25C10.1494 25 6.10438 21.546 5.19238 16.962Z" fill="white"/>
<defs>
<linearGradient id="paint0_linear_6773_27143" x1="15" y1="0" x2="15" y2="30" gradientUnits="userSpaceOnUse">
<stop stop-color="#6D2EC2"/>
<stop offset="1" stop-color="#B50189"/>
</linearGradient>
</defs>
</svg>
