<svg width="30" height="30" viewBox="0 0 30 30" fill="none" xmlns="http://www.w3.org/2000/svg">
<path d="M0 15C0 6.71573 6.71573 0 15 0C23.2843 0 30 6.71573 30 15C30 23.2843 23.2843 30 15 30C6.71573 30 0 23.2843 0 15Z" fill="url(#paint0_linear_6773_27099)"/>
<path d="M7.507 9.008C7.04493 9.30084 6.66444 9.70582 6.40095 10.1852C6.13746 10.6647 5.99953 11.2029 6 11.75V18.25C6 21.15 8.35 23.5 11.25 23.5H17.75C18.2974 23.5003 18.836 23.3622 19.3158 23.0986C19.7955 22.8349 20.2008 22.4543 20.494 21.992L20.372 21.998L20.25 22H11.25C10.2554 22 9.30161 21.6049 8.59835 20.9017C7.89509 20.1984 7.5 19.2446 7.5 18.25V9.25C7.5 9.169 7.502 9.088 7.507 9.008ZM15.571 15.149L15.477 15.227L10.083 20.54C10.57 20.832 11.141 21 11.75 21H20.25C20.871 21 21.451 20.826 21.945 20.524L16.528 15.225L16.444 15.155C16.3336 15.0746 16.2034 15.0259 16.0673 15.0141C15.9313 15.0023 15.7946 15.0278 15.672 15.088L15.571 15.149ZM11.75 6C10.888 6 10.0614 6.34241 9.4519 6.9519C8.84241 7.5614 8.5 8.38805 8.5 9.25V17.75C8.5 18.392 8.686 18.99 9.007 19.494L14.425 14.158L14.553 14.041C14.9567 13.7008 15.4672 13.5133 15.9952 13.5115C16.5231 13.5097 17.0349 13.6936 17.441 14.031L17.577 14.153L23.01 19.467C23.32 18.969 23.5 18.381 23.5 17.75V9.25C23.5 8.38805 23.1576 7.5614 22.5481 6.9519C21.9386 6.34241 21.112 6 20.25 6H11.75ZM12.5 8.751C12.6671 8.74627 12.8334 8.7751 12.9891 8.83576C13.1448 8.89643 13.2868 8.98771 13.4066 9.10421C13.5265 9.2207 13.6217 9.36004 13.6868 9.51399C13.7518 9.66794 13.7854 9.83337 13.7854 10.0005C13.7854 10.1676 13.7518 10.3331 13.6868 10.487C13.6217 10.641 13.5265 10.7803 13.4066 10.8968C13.2868 11.0133 13.1448 11.1046 12.9891 11.1652C12.8334 11.2259 12.6671 11.2547 12.5 11.25C12.1747 11.2408 11.8659 11.1051 11.6391 10.8718C11.4122 10.6385 11.2854 10.3259 11.2854 10.0005C11.2854 9.6751 11.4122 9.36253 11.6391 9.1292C11.8659 8.89588 12.1747 8.7602 12.5 8.751Z" fill="white"/>
<defs>
<linearGradient id="paint0_linear_6773_27099" x1="15" y1="0" x2="15" y2="30" gradientUnits="userSpaceOnUse">
<stop stop-color="#6D2EC2"/>
<stop offset="1" stop-color="#B50189"/>
</linearGradient>
</defs>
</svg>
