<svg width="30" height="30" viewBox="0 0 30 30" fill="none" xmlns="http://www.w3.org/2000/svg">
<path d="M0 15C0 6.71573 6.71573 0 15 0C23.2843 0 30 6.71573 30 15C30 23.2843 23.2843 30 15 30C6.71573 30 0 23.2843 0 15Z" fill="url(#paint0_linear_6773_27170)"/>
<path d="M15 25C9.477 25 5 20.523 5 15C5 9.477 9.477 5 15 5C20.523 5 25 9.477 25 15C25 20.523 20.523 25 15 25ZM14 15.792V19H16V15.792C16.5264 15.5623 16.9576 15.1583 17.2212 14.648C17.4848 14.1377 17.5646 13.5522 17.4473 12.9899C17.3299 12.4277 17.0226 11.923 16.5769 11.5607C16.1312 11.1985 15.5744 11.0007 15 11.0007C14.4256 11.0007 13.8688 11.1985 13.4231 11.5607C12.9774 11.923 12.6701 12.4277 12.5527 12.9899C12.4354 13.5522 12.5152 14.1377 12.7788 14.648C13.0424 15.1583 13.4736 15.5623 14 15.792Z" fill="white"/>
<defs>
<linearGradient id="paint0_linear_6773_27170" x1="15" y1="0" x2="15" y2="30" gradientUnits="userSpaceOnUse">
<stop stop-color="#6D2EC2"/>
<stop offset="1" stop-color="#B50189"/>
</linearGradient>
</defs>
</svg>
