<svg width="30" height="30" viewBox="0 0 30 30" fill="none" xmlns="http://www.w3.org/2000/svg">
<path d="M0 15C0 6.71573 6.71573 0 15 0C23.2843 0 30 6.71573 30 15C30 23.2843 23.2843 30 15 30C6.71573 30 0 23.2843 0 15Z" fill="url(#paint0_linear_6773_27106)"/>
<path d="M22.448 17.522C22.526 17.677 22.517 17.861 22.426 18.008C22.335 18.1549 22.174 18.245 22.001 18.245H9.5V23.7503C9.5 24.3031 9.052 24.75 8.5 24.75C7.948 24.75 7.5 24.3031 7.5 23.7503V16.7525L7.50101 16.7474V9.74859C7.50101 7.26837 9.52001 5.25 12.001 5.25H22.001C22.174 5.25 22.335 5.34003 22.426 5.48699C22.517 5.63394 22.526 5.81772 22.448 5.97267L19.895 11.0761C19.685 11.4959 19.685 11.9978 19.895 12.4177L22.448 17.522Z" fill="white"/>
<defs>
<linearGradient id="paint0_linear_6773_27106" x1="15" y1="0" x2="15" y2="30" gradientUnits="userSpaceOnUse">
<stop stop-color="#6D2EC2"/>
<stop offset="1" stop-color="#B50189"/>
</linearGradient>
</defs>
</svg>
