<svg width="30" height="30" viewBox="0 0 30 30" fill="none" xmlns="http://www.w3.org/2000/svg">
<path d="M0 15C0 6.71573 6.71573 0 15 0C23.2843 0 30 6.71573 30 15C30 23.2843 23.2843 30 15 30C6.71573 30 0 23.2843 0 15Z" fill="url(#paint0_linear_6773_27129)"/>
<path d="M14 6.1802V23.8202C14 24.4602 13.41 24.9402 12.79 24.8002C8.32 23.8002 5 19.7902 5 15.0002C5 10.2102 8.32 6.2002 12.79 5.2002C12.9361 5.16845 13.0874 5.16991 13.2328 5.20447C13.3782 5.23903 13.514 5.30581 13.6301 5.39988C13.7463 5.49395 13.8398 5.6129 13.9038 5.74796C13.9679 5.88302 14.0007 6.03074 14 6.1802ZM16.03 6.1802V12.9902C16.03 13.5402 16.48 13.9902 17.03 13.9902H23.82C24.46 13.9902 24.94 13.4002 24.8 12.7702C23.95 9.0102 21 6.0502 17.25 5.2002C16.62 5.0602 16.03 5.5402 16.03 6.1802ZM16.03 17.0102V23.8202C16.03 24.4602 16.62 24.9402 17.25 24.8002C21.01 23.9502 23.96 20.9802 24.81 17.2202C24.95 16.6002 24.46 16.0002 23.83 16.0002H17.04C16.48 16.0102 16.03 16.4602 16.03 17.0102Z" fill="white"/>
<defs>
<linearGradient id="paint0_linear_6773_27129" x1="15" y1="0" x2="15" y2="30" gradientUnits="userSpaceOnUse">
<stop stop-color="#6D2EC2"/>
<stop offset="1" stop-color="#B50189"/>
</linearGradient>
</defs>
</svg>
