<svg width="30" height="30" viewBox="0 0 30 30" fill="none" xmlns="http://www.w3.org/2000/svg">
<path d="M0 15C0 6.71573 6.71573 0 15 0C23.2843 0 30 6.71573 30 15C30 23.2843 23.2843 30 15 30C6.71573 30 0 23.2843 0 15Z" fill="url(#paint0_linear_5934_8470)"/>
<path fill-rule="evenodd" clip-rule="evenodd" d="M20.9026 5.08932H9.35121C8.54113 5.08937 7.76302 5.40536 7.18226 5.97011C6.6015 6.53486 6.2639 7.30385 6.24121 8.11361V21.7907C6.24197 22.6151 6.56996 23.4054 7.15312 23.988C7.73627 24.5706 8.52688 24.8979 9.35121 24.8979H22.2612C22.5454 24.8979 22.8179 24.785 23.0188 24.5841C23.2198 24.3831 23.3326 24.1106 23.3326 23.8265C23.3326 23.5423 23.2198 23.2698 23.0188 23.0688C22.8179 22.8679 22.5454 22.755 22.2612 22.755H21.9755V20.5707C22.3833 20.3707 22.7266 20.0601 22.9666 19.6745C23.2065 19.2888 23.3333 18.8435 23.3326 18.3893V7.51789C23.3326 7.19878 23.2698 6.88279 23.1477 6.58797C23.0255 6.29315 22.8466 6.02527 22.6209 5.79962C22.3953 5.57397 22.1274 5.39498 21.8326 5.27286C21.5377 5.15074 21.2218 5.08789 20.9026 5.08789V5.08932ZM8.66693 22.4707C8.53199 22.3354 8.44018 22.1631 8.40307 21.9757C8.36597 21.7882 8.38524 21.5939 8.45845 21.4174C8.53166 21.2409 8.65553 21.09 8.81442 20.9838C8.97331 20.8776 9.1601 20.8209 9.35121 20.8207H19.8312V22.755H9.35121C9.22382 22.7551 9.09767 22.7301 8.97999 22.6813C8.86232 22.6325 8.75687 22.561 8.66693 22.4707ZM17.2526 16.8907C16.7504 17.009 16.2236 16.9645 15.7484 16.7636C13.8263 15.6111 12.218 14.0028 11.0655 12.0807C10.8661 11.6048 10.8226 11.0779 10.9411 10.5756C11.0597 10.0734 11.3343 9.62159 11.7255 9.28503L12.0769 8.9336C12.1998 8.78018 12.3773 8.68023 12.5722 8.65467C12.7671 8.62911 12.9643 8.67992 13.1226 8.79646L14.2598 9.93361C14.3763 10.0919 14.4271 10.2891 14.4016 10.4841C14.376 10.679 14.2761 10.8564 14.1226 10.9793C13.9694 11.1024 13.8698 11.28 13.8445 11.4749C13.8192 11.6698 13.8702 11.8669 13.9869 12.025L15.8041 13.8422C15.9622 13.9589 16.1593 14.0099 16.3542 13.9846C16.5491 13.9593 16.7267 13.8597 16.8498 13.7065C16.9729 13.5533 17.1504 13.4536 17.3453 13.4283C17.5402 13.403 17.7374 13.454 17.8955 13.5707L19.0326 14.7065C19.1492 14.8648 19.2 15.062 19.1744 15.2569C19.1489 15.4518 19.0489 15.6293 18.8955 15.7522L18.5441 16.105C18.2084 16.4972 17.7566 16.7724 17.2541 16.8907H17.2526Z" fill="white"/>
<defs>
<linearGradient id="paint0_linear_5934_8470" x1="15" y1="0" x2="15" y2="30" gradientUnits="userSpaceOnUse">
<stop stop-color="#6D2EC2"/>
<stop offset="1" stop-color="#B50189"/>
</linearGradient>
</defs>
</svg>
