<svg width="94" height="94" viewBox="0 0 94 94" fill="none" xmlns="http://www.w3.org/2000/svg">
<path d="M46.6667 0C20.8892 0 0 20.895 0 46.6667C0 72.4383 20.8892 93.3333 46.6667 93.3333C72.4442 93.3333 93.3333 72.4383 93.3333 46.6667C93.3333 20.895 72.4442 0 46.6667 0ZM68.2908 60.0425C69.3846 61.1363 69.9991 62.6198 69.9991 64.1667C69.9991 65.7135 69.3846 67.197 68.2908 68.2908C67.197 69.3846 65.7135 69.9991 64.1667 69.9991C62.6198 69.9991 61.1363 69.3846 60.0425 68.2908L46.6667 54.915L33.2908 68.2908C32.7504 68.8344 32.1078 69.2658 31.4 69.5601C30.6922 69.8545 29.9332 70.006 29.1667 70.006C28.4001 70.006 27.6411 69.8545 26.9334 69.5601C26.2256 69.2658 25.583 68.8344 25.0425 68.2908C24.5003 67.7496 24.0702 67.1067 23.7767 66.399C23.4832 65.6914 23.3322 64.9328 23.3322 64.1667C23.3322 63.4006 23.4832 62.642 23.7767 61.9343C24.0702 61.2266 24.5003 60.5838 25.0425 60.0425L38.4183 46.6667L25.0425 33.2908C23.9487 32.197 23.3342 30.7135 23.3342 29.1667C23.3342 27.6198 23.9487 26.1363 25.0425 25.0425C26.1363 23.9487 27.6198 23.3342 29.1667 23.3342C30.7135 23.3342 32.197 23.9487 33.2908 25.0425L46.6667 38.4183L60.0425 25.0425C61.1363 23.9487 62.6198 23.3342 64.1667 23.3342C65.7135 23.3342 67.197 23.9487 68.2908 25.0425C69.3846 26.1363 69.9991 27.6198 69.9991 29.1667C69.9991 30.7135 69.3846 32.197 68.2908 33.2908L54.915 46.6667L68.2908 60.0425Z" fill="#3A5AD2"/>
</svg>
