<svg width="30" height="30" viewBox="0 0 30 30" fill="none" xmlns="http://www.w3.org/2000/svg">
<path d="M0 15C0 6.71573 6.71573 0 15 0C23.2843 0 30 6.71573 30 15C30 23.2843 23.2843 30 15 30C6.71573 30 0 23.2843 0 15Z" fill="url(#paint0_linear_7212_36599)"/>
<path d="M15 7C10.581 7 7 10.582 7 15C7 19.418 10.581 23 15 23C19.419 23 23 19.418 23 15C23 10.582 19.419 7 15 7ZM18.707 17.293C18.8945 17.4805 18.9998 17.7348 18.9998 18C18.9998 18.2652 18.8945 18.5195 18.707 18.707C18.5195 18.8945 18.2652 18.9998 18 18.9998C17.7348 18.9998 17.4805 18.8945 17.293 18.707L15 16.414L12.707 18.707C12.6143 18.8002 12.5042 18.8741 12.3829 18.9246C12.2615 18.9751 12.1314 19.001 12 19.001C11.8686 19.001 11.7385 18.9751 11.6171 18.9246C11.4958 18.8741 11.3857 18.8002 11.293 18.707C11.2001 18.6142 11.1263 18.504 11.076 18.3827C11.0257 18.2614 10.9998 18.1313 10.9998 18C10.9998 17.8687 11.0257 17.7386 11.076 17.6173C11.1263 17.496 11.2001 17.3858 11.293 17.293L13.586 15L11.293 12.707C11.1055 12.5195 11.0002 12.2652 11.0002 12C11.0002 11.7348 11.1055 11.4805 11.293 11.293C11.4805 11.1055 11.7348 11.0002 12 11.0002C12.2652 11.0002 12.5195 11.1055 12.707 11.293L15 13.586L17.293 11.293C17.4805 11.1055 17.7348 11.0002 18 11.0002C18.2652 11.0002 18.5195 11.1055 18.707 11.293C18.8945 11.4805 18.9998 11.7348 18.9998 12C18.9998 12.2652 18.8945 12.5195 18.707 12.707L16.414 15L18.707 17.293Z" fill="white"/>
<defs>
<linearGradient id="paint0_linear_7212_36599" x1="15" y1="0" x2="15" y2="30" gradientUnits="userSpaceOnUse">
<stop stop-color="#6D2EC2"/>
<stop offset="1" stop-color="#B50189"/>
</linearGradient>
</defs>
</svg>
