<svg width="30" height="30" viewBox="0 0 30 30" fill="none" xmlns="http://www.w3.org/2000/svg">
<path d="M0 15C0 6.71573 6.71573 0 15 0C23.2843 0 30 6.71573 30 15C30 23.2843 23.2843 30 15 30C6.71573 30 0 23.2843 0 15Z" fill="url(#paint0_linear_7212_36606)"/>
<path fill-rule="evenodd" clip-rule="evenodd" d="M12.707 5.40992C12 6.03692 12 7.18392 12 9.47692V20.5249C12 22.8179 12 23.9649 12.707 24.5919C13.414 25.2189 14.495 25.0309 16.657 24.6539L18.987 24.2479C21.381 23.8299 22.578 23.6209 23.289 22.7429C24 21.8639 24 20.5939 24 18.0529V11.9489C24 9.40892 24 8.13892 23.29 7.25992C22.578 6.38192 21.38 6.17292 18.986 5.75592L16.658 5.34892C14.496 4.97192 13.415 4.78392 12.708 5.41092M15 13.1699C15.414 13.1699 15.75 13.5209 15.75 13.9539V16.0479C15.75 16.4809 15.414 16.8319 15 16.8319C14.586 16.8319 14.25 16.4809 14.25 16.0479V13.9539C14.25 13.5209 14.586 13.1699 15 13.1699Z" fill="white"/>
<path d="M10.547 7.5C8.489 7.503 7.416 7.548 6.732 8.232C6 8.964 6 10.142 6 12.5V17.5C6 19.857 6 21.035 6.732 21.768C7.416 22.451 8.489 22.497 10.547 22.5C10.5 21.876 10.5 21.156 10.5 20.377V9.623C10.5 8.843 10.5 8.123 10.547 7.5Z" fill="white"/>
<defs>
<linearGradient id="paint0_linear_7212_36606" x1="15" y1="0" x2="15" y2="30" gradientUnits="userSpaceOnUse">
<stop stop-color="#6D2EC2"/>
<stop offset="1" stop-color="#B50189"/>
</linearGradient>
</defs>
</svg>
