<svg width="140" height="140" viewBox="0 0 140 140" fill="none" xmlns="http://www.w3.org/2000/svg">
<path fill-rule="evenodd" clip-rule="evenodd" d="M56.6242 14.0517C52.5 17.7092 52.5 24.4 52.5 37.7758V102.222C52.5 115.598 52.5 122.289 56.6242 125.947C60.7483 129.604 67.0542 128.507 79.6658 126.308L93.2575 123.94C107.223 121.502 114.205 120.282 118.352 115.161C122.5 110.033 122.5 102.625 122.5 87.8025V52.1958C122.5 37.3792 122.5 29.9708 118.358 24.8433C114.205 19.7217 107.217 18.5025 93.2517 16.07L79.6717 13.6958C67.06 11.4967 60.7542 10.4 56.63 14.0575M70 59.3183C72.415 59.3183 74.375 61.3658 74.375 63.8917V76.1067C74.375 78.6325 72.415 80.68 70 80.68C67.585 80.68 65.625 78.6325 65.625 76.1067V63.8917C65.625 61.3658 67.585 59.3183 70 59.3183Z" fill="#3A5AD2"/>
<path d="M44.0242 26.25C32.0192 26.2675 25.76 26.53 21.77 30.52C17.5 34.79 17.5 41.6617 17.5 55.4167V84.5833C17.5 98.3325 17.5 105.204 21.77 109.48C25.76 113.464 32.0192 113.733 44.0242 113.75C43.75 110.11 43.75 105.91 43.75 101.366V38.6342C43.75 34.0842 43.75 29.8842 44.0242 26.25Z" fill="#3A5AD2"/>
</svg>
