<svg width="20" height="20" viewBox="0 0 20 20" fill="none" xmlns="http://www.w3.org/2000/svg">
<g clip-path="url(#clip0_5553_11031)">
<mask id="mask0_5553_11031" style="mask-type:luminance" maskUnits="userSpaceOnUse" x="0" y="0" width="20" height="20">
<path d="M0 0H20V20H0V0Z" fill="white"/>
</mask>
<g mask="url(#mask0_5553_11031)">
<path fill-rule="evenodd" clip-rule="evenodd" d="M1.875 13.7504H5.625L8.8575 16.9829C9.10469 17.2301 9.41966 17.3985 9.76257 17.4668C10.1055 17.535 10.4609 17.5 10.7839 17.3662C11.107 17.2324 11.383 17.0058 11.5772 16.715C11.7715 16.4243 11.8751 16.0825 11.875 15.7329V4.26788C11.8751 3.91825 11.7715 3.57644 11.5772 3.28571C11.383 2.99498 11.107 2.76837 10.7839 2.63456C10.4609 2.50076 10.1055 2.46575 9.76257 2.53398C9.41966 2.60221 9.10469 2.77061 8.8575 3.01788L5.625 6.25038H1.875C1.37772 6.25038 0.900805 6.44792 0.549175 6.79955C0.197544 7.15118 0 7.6281 0 8.12538L0 11.8754C0 12.3727 0.197544 12.8496 0.549175 13.2012C0.900805 13.5528 1.37772 13.7504 1.875 13.7504ZM17.7025 16.3791C17.3713 16.7779 16.7738 16.7754 16.4075 16.4091C16.0425 16.0429 16.0475 15.4516 16.3687 15.0466C17.509 13.6121 18.1282 11.8329 18.125 10.0004C18.1279 8.16833 17.5087 6.38958 16.3687 4.95538C16.0475 4.54913 16.0425 3.95913 16.4088 3.59288C16.7738 3.22663 17.3713 3.22413 17.7025 3.62288C19.1903 5.4148 20.0032 7.67134 20 10.0004C20 12.4254 19.1375 14.6479 17.7025 16.3791ZM15.03 13.7104C14.7225 14.1266 14.1225 14.1229 13.7563 13.7566C13.39 13.3916 13.4012 12.8016 13.6812 12.3666C14.1346 11.6607 14.3754 10.8393 14.375 10.0004C14.375 9.12913 14.12 8.31788 13.6812 7.63538C13.4012 7.20038 13.39 6.61038 13.7563 6.24413C14.1225 5.87788 14.7225 5.87413 15.0312 6.29163C15.7975 7.32913 16.25 8.61163 16.25 10.0004C16.2518 11.3359 15.8241 12.6366 15.03 13.7104Z" fill="white"/>
</g>
</g>
<defs>
<clipPath id="clip0_5553_11031">
<rect width="20" height="20" fill="white"/>
</clipPath>
</defs>
</svg>
