<svg width="40" height="40" viewBox="0 0 40 40" fill="none" xmlns="http://www.w3.org/2000/svg">
<g clip-path="url(#clip0_6033_17105)">
<g filter="url(#filter0_di_6033_17105)">
<path d="M19.9999 3.33398C17.8112 3.33398 15.644 3.76508 13.6219 4.60266C11.5998 5.44024 9.76245 6.66789 8.21481 8.21554C5.0892 11.3411 3.33325 15.5804 3.33325 20.0007C3.33325 24.4209 5.0892 28.6602 8.21481 31.7858C9.76245 33.3334 11.5998 34.5611 13.6219 35.3986C15.644 36.2362 17.8112 36.6673 19.9999 36.6673C24.4202 36.6673 28.6594 34.9114 31.785 31.7858C34.9106 28.6602 36.6666 24.4209 36.6666 20.0007C36.6666 17.812 36.2355 15.6447 35.3979 13.6226C34.5603 11.6005 33.3327 9.76318 31.785 8.21554C30.2374 6.66789 28.4001 5.44024 26.378 4.60266C24.3559 3.76508 22.1886 3.33398 19.9999 3.33398ZM26.9999 27.0007L18.3333 21.6673V11.6673H20.8333V20.334L28.3333 24.834L26.9999 27.0007Z" fill="url(#paint0_radial_6033_17105)" shape-rendering="crispEdges"/>
<path d="M20.0002 3.83398C22.1232 3.83403 24.2254 4.25204 26.1868 5.06445C28.1482 5.8769 29.9307 7.06814 31.4319 8.56934C32.9328 10.0704 34.1234 11.8524 34.9358 13.8135C35.7482 15.7749 36.1663 17.8779 36.1663 20.001C36.1662 24.2885 34.4636 28.4009 31.4319 31.4326C28.4001 34.4644 24.2878 36.1669 20.0002 36.167C17.8772 36.167 15.7742 35.749 13.8127 34.9365C11.8516 34.1241 10.0696 32.9336 8.5686 31.4326C5.53684 28.4009 3.83334 24.2885 3.83325 20.001C3.83325 15.7133 5.53677 11.6012 8.5686 8.56934C10.0697 7.06821 11.8514 5.8769 13.8127 5.06445C15.7742 4.252 17.8772 3.83398 20.0002 3.83398ZM17.8333 21.9463L18.0715 22.0928L26.7375 27.4268L27.1633 27.6885L27.426 27.2627L28.759 25.0957L29.0237 24.665L28.5901 24.4053L21.3333 20.0508V11.167H17.8333V21.9463Z" stroke="url(#paint1_linear_6033_17105)" shape-rendering="crispEdges"/>
</g>
</g>
<defs>
<filter id="filter0_di_6033_17105" x="-3.66675" y="0.333984" width="47.3333" height="47.334" filterUnits="userSpaceOnUse" color-interpolation-filters="sRGB">
<feFlood flood-opacity="0" result="BackgroundImageFix"/>
<feColorMatrix in="SourceAlpha" type="matrix" values="0 0 0 0 0 0 0 0 0 0 0 0 0 0 0 0 0 0 127 0" result="hardAlpha"/>
<feOffset dy="4"/>
<feGaussianBlur stdDeviation="3.5"/>
<feComposite in2="hardAlpha" operator="out"/>
<feColorMatrix type="matrix" values="0 0 0 0 0 0 0 0 0 0 0 0 0 0 0 0 0 0 0.1 0"/>
<feBlend mode="normal" in2="BackgroundImageFix" result="effect1_dropShadow_6033_17105"/>
<feBlend mode="normal" in="SourceGraphic" in2="effect1_dropShadow_6033_17105" result="shape"/>
<feColorMatrix in="SourceAlpha" type="matrix" values="0 0 0 0 0 0 0 0 0 0 0 0 0 0 0 0 0 0 127 0" result="hardAlpha"/>
<feOffset dy="2"/>
<feGaussianBlur stdDeviation="2"/>
<feComposite in2="hardAlpha" operator="arithmetic" k2="-1" k3="1"/>
<feColorMatrix type="matrix" values="0 0 0 0 0 0 0 0 0 0 0 0 0 0 0 0 0 0 0.5 0"/>
<feBlend mode="normal" in2="shape" result="effect2_innerShadow_6033_17105"/>
</filter>
<radialGradient id="paint0_radial_6033_17105" cx="0" cy="0" r="1" gradientUnits="userSpaceOnUse" gradientTransform="translate(19.9999 1.74668) rotate(90) scale(57.9365)">
<stop stop-color="white"/>
<stop offset="1" stop-color="white" stop-opacity="0"/>
</radialGradient>
<linearGradient id="paint1_linear_6033_17105" x1="19.9999" y1="3.33398" x2="19.9999" y2="36.6673" gradientUnits="userSpaceOnUse">
<stop offset="0.735221" stop-color="white" stop-opacity="0"/>
<stop offset="1" stop-color="white" stop-opacity="0.8"/>
</linearGradient>
<clipPath id="clip0_6033_17105">
<rect width="40" height="40" fill="white"/>
</clipPath>
</defs>
</svg>
