<svg width="40" height="40" viewBox="0 0 40 40" fill="none" xmlns="http://www.w3.org/2000/svg">
<g clip-path="url(#clip0_6033_16808)">
<g filter="url(#filter0_di_6033_16808)">
<path d="M28.3334 5H11.6667C7.53341 5 4.16675 8.36667 4.16675 12.5V34.1667C4.16675 34.5 4.36674 34.7999 4.68341 34.9333C4.78341 34.9833 4.90008 35 5.00008 35C5.21675 35 5.43342 34.9168 5.58342 34.7502L9.61673 30.7332C10.0834 30.2666 10.7167 30 11.3834 30H28.3334C32.4667 30 35.8334 26.6333 35.8334 22.5V12.5C35.8334 8.36667 32.4667 5 28.3334 5ZM13.3334 19.5833C12.1834 19.5833 11.2501 18.65 11.2501 17.5C11.2501 16.35 12.1834 15.4167 13.3334 15.4167C14.4834 15.4167 15.4167 16.35 15.4167 17.5C15.4167 18.65 14.4834 19.5833 13.3334 19.5833ZM20.0001 19.5833C18.8501 19.5833 17.9167 18.65 17.9167 17.5C17.9167 16.35 18.8501 15.4167 20.0001 15.4167C21.1501 15.4167 22.0834 16.35 22.0834 17.5C22.0834 18.65 21.1501 19.5833 20.0001 19.5833ZM26.6667 19.5833C25.5167 19.5833 24.5834 18.65 24.5834 17.5C24.5834 16.35 25.5167 15.4167 26.6667 15.4167C27.8167 15.4167 28.7501 16.35 28.7501 17.5C28.7501 18.65 27.8167 19.5833 26.6667 19.5833Z" fill="url(#paint0_radial_6033_16808)" shape-rendering="crispEdges"/>
<path d="M11.6667 5.5H28.3337C32.1908 5.50018 35.3337 8.64292 35.3337 12.5V22.5C35.3337 26.3571 32.1908 29.4998 28.3337 29.5H11.3835C10.5831 29.5 9.82278 29.8198 9.26343 30.3789L5.23022 34.3955L5.22046 34.4053L5.21167 34.416C5.16812 34.4643 5.09294 34.5 4.99976 34.5C4.97682 34.5 4.95482 34.4977 4.93628 34.4941C4.9177 34.4906 4.9085 34.4871 4.90698 34.4863L4.89233 34.4785L4.87769 34.4727L4.82983 34.4482C4.72469 34.3852 4.66686 34.2788 4.66675 34.167V12.5C4.66675 8.64281 7.80956 5.5 11.6667 5.5ZM13.3337 14.917C11.9076 14.917 10.7498 16.0739 10.7498 17.5C10.7498 18.9261 11.9076 20.083 13.3337 20.083C14.7597 20.0828 15.9167 18.926 15.9167 17.5C15.9167 16.074 14.7597 14.9172 13.3337 14.917ZM19.9998 14.917C18.5738 14.9172 17.4167 16.074 17.4167 17.5C17.4167 18.926 18.5738 20.0828 19.9998 20.083C21.4259 20.083 22.5837 18.9261 22.5837 17.5C22.5837 16.0739 21.4259 14.917 19.9998 14.917ZM26.6667 14.917C25.2406 14.917 24.0837 16.0739 24.0837 17.5C24.0837 18.9261 25.2406 20.083 26.6667 20.083C28.0929 20.083 29.2498 18.9261 29.2498 17.5C29.2498 16.0739 28.0929 14.917 26.6667 14.917Z" stroke="url(#paint1_linear_6033_16808)" shape-rendering="crispEdges"/>
</g>
</g>
<defs>
<filter id="filter0_di_6033_16808" x="-2.83325" y="2" width="45.6667" height="44" filterUnits="userSpaceOnUse" color-interpolation-filters="sRGB">
<feFlood flood-opacity="0" result="BackgroundImageFix"/>
<feColorMatrix in="SourceAlpha" type="matrix" values="0 0 0 0 0 0 0 0 0 0 0 0 0 0 0 0 0 0 127 0" result="hardAlpha"/>
<feOffset dy="4"/>
<feGaussianBlur stdDeviation="3.5"/>
<feComposite in2="hardAlpha" operator="out"/>
<feColorMatrix type="matrix" values="0 0 0 0 0 0 0 0 0 0 0 0 0 0 0 0 0 0 0.1 0"/>
<feBlend mode="normal" in2="BackgroundImageFix" result="effect1_dropShadow_6033_16808"/>
<feBlend mode="normal" in="SourceGraphic" in2="effect1_dropShadow_6033_16808" result="shape"/>
<feColorMatrix in="SourceAlpha" type="matrix" values="0 0 0 0 0 0 0 0 0 0 0 0 0 0 0 0 0 0 127 0" result="hardAlpha"/>
<feOffset dy="2"/>
<feGaussianBlur stdDeviation="2"/>
<feComposite in2="hardAlpha" operator="arithmetic" k2="-1" k3="1"/>
<feColorMatrix type="matrix" values="0 0 0 0 0 0 0 0 0 0 0 0 0 0 0 0 0 0 0.5 0"/>
<feBlend mode="normal" in2="shape" result="effect2_innerShadow_6033_16808"/>
</filter>
<radialGradient id="paint0_radial_6033_16808" cx="0" cy="0" r="1" gradientUnits="userSpaceOnUse" gradientTransform="translate(20.0001 3.57143) rotate(90) scale(52.1429 55.0397)">
<stop stop-color="white"/>
<stop offset="1" stop-color="white" stop-opacity="0"/>
</radialGradient>
<linearGradient id="paint1_linear_6033_16808" x1="20.0001" y1="5" x2="20.0001" y2="35" gradientUnits="userSpaceOnUse">
<stop offset="0.735221" stop-color="white" stop-opacity="0"/>
<stop offset="1" stop-color="white" stop-opacity="0.8"/>
</linearGradient>
<clipPath id="clip0_6033_16808">
<rect width="40" height="40" fill="white"/>
</clipPath>
</defs>
</svg>
