<svg width="41" height="45" viewBox="0 0 41 45" fill="none" xmlns="http://www.w3.org/2000/svg">
<g filter="url(#filter0_di_7499_2950)">
<path d="M32.4241 5.02938C33.0553 4.8716 33.6667 5.34896 33.6667 5.99953V26.941H33.6487C33.8791 28.563 31.874 30.3811 28.9928 31.0949C25.9639 31.8454 23.1138 31.0915 22.6268 29.411C22.1399 27.7304 24.2005 25.7597 27.2294 25.0092C28.7786 24.6254 30.281 24.6351 31.4444 24.961V9.71875L18.1111 13.0521V31.3854H18.0931C18.3235 33.0075 16.3184 34.8255 13.4373 35.5394C10.4084 36.2899 7.55821 35.5359 7.07125 33.8554C6.5843 32.1749 8.64495 30.2042 11.6738 29.4537C13.223 29.0698 14.7255 29.0795 15.8889 29.4055V9.94398C15.8889 9.48511 16.2012 9.08513 16.6464 8.97383L32.4241 5.02938Z" fill="url(#paint0_radial_7499_2950)" shape-rendering="crispEdges"/>
<path d="M32.4844 5.27148C32.9577 5.15314 33.417 5.51207 33.417 6V26.6914H33.3604L33.4014 26.9766C33.4995 27.6693 33.1233 28.4529 32.3203 29.1729C31.5234 29.8872 30.3407 30.5036 28.9326 30.8525C27.4522 31.2193 26.0258 31.215 24.9209 30.9229C23.8063 30.628 23.0753 30.059 22.8672 29.3418C22.6609 28.63 22.9811 27.8082 23.7822 27.042C24.5775 26.2814 25.8083 25.6189 27.2891 25.252C28.8039 24.8766 30.2622 24.8898 31.377 25.2021L31.6943 25.291V9.39844L31.3838 9.47656L18.0508 12.8096L17.8613 12.8564V31.1357H17.8047L17.8457 31.4209C17.9439 32.1136 17.5686 32.8972 16.7656 33.6172C15.9687 34.3317 14.7853 34.9479 13.377 35.2969C11.8965 35.6637 10.4701 35.6594 9.36523 35.3672C8.2506 35.0723 7.51954 34.5034 7.31152 33.7861C7.10528 33.0744 7.42548 32.2525 8.22656 31.4863C9.02195 30.7256 10.2534 30.0633 11.7344 29.6963C13.2491 29.321 14.7066 29.3342 15.8213 29.6465L16.1387 29.7354V9.94434C16.1387 9.60021 16.3732 9.30029 16.707 9.2168L32.4844 5.27148Z" stroke="url(#paint1_linear_7499_2950)" stroke-width="0.5" shape-rendering="crispEdges"/>
</g>
<defs>
<filter id="filter0_di_7499_2950" x="0" y="0" width="40.6667" height="44.8301" filterUnits="userSpaceOnUse" color-interpolation-filters="sRGB">
<feFlood flood-opacity="0" result="BackgroundImageFix"/>
<feColorMatrix in="SourceAlpha" type="matrix" values="0 0 0 0 0 0 0 0 0 0 0 0 0 0 0 0 0 0 127 0" result="hardAlpha"/>
<feOffset dy="2"/>
<feGaussianBlur stdDeviation="3.5"/>
<feComposite in2="hardAlpha" operator="out"/>
<feColorMatrix type="matrix" values="0 0 0 0 0 0 0 0 0 0 0 0 0 0 0 0 0 0 0.1 0"/>
<feBlend mode="normal" in2="BackgroundImageFix" result="effect1_dropShadow_7499_2950"/>
<feBlend mode="normal" in="SourceGraphic" in2="effect1_dropShadow_7499_2950" result="shape"/>
<feColorMatrix in="SourceAlpha" type="matrix" values="0 0 0 0 0 0 0 0 0 0 0 0 0 0 0 0 0 0 127 0" result="hardAlpha"/>
<feOffset dy="2"/>
<feGaussianBlur stdDeviation="2"/>
<feComposite in2="hardAlpha" operator="arithmetic" k2="-1" k3="1"/>
<feColorMatrix type="matrix" values="0 0 0 0 0 0 0 0 0 0 0 0 0 0 0 0 0 0 0.5 0"/>
<feBlend mode="normal" in2="shape" result="effect2_innerShadow_7499_2950"/>
</filter>
<radialGradient id="paint0_radial_7499_2950" cx="0" cy="0" r="1" gradientUnits="userSpaceOnUse" gradientTransform="translate(20.3333 3.23727) rotate(90) scale(54.0741 46.3492)">
<stop stop-color="white"/>
<stop offset="1" stop-color="white" stop-opacity="0"/>
</radialGradient>
<linearGradient id="paint1_linear_7499_2950" x1="20.3333" y1="4.71875" x2="20.3333" y2="35.8299" gradientUnits="userSpaceOnUse">
<stop offset="0.735221" stop-color="white" stop-opacity="0"/>
<stop offset="1" stop-color="white" stop-opacity="0.8"/>
</linearGradient>
</defs>
</svg>
