<svg width="40" height="40" viewBox="0 0 40 40" fill="none" xmlns="http://www.w3.org/2000/svg">
<g clip-path="url(#clip0_6033_16974)">
<g filter="url(#filter0_di_6033_16974)">
<mask id="path-1-inside-1_6033_16974" fill="white">
<path d="M9.58333 23.3333C9.58333 22.2222 9.63333 21.1111 9.73333 20C9.7383 19.9432 9.73203 19.886 9.71487 19.8317C9.69771 19.7774 9.67 19.7269 9.63333 19.6833C9.54957 19.5988 9.4357 19.5508 9.31667 19.55H4.16667C4.07507 19.5537 3.987 19.5863 3.91513 19.6432C3.84325 19.7001 3.79127 19.7784 3.76667 19.8667C3.48303 21.0005 3.33753 22.1645 3.33333 23.3333C3.3321 24.497 3.47769 25.6561 3.76667 26.7833C3.78605 26.8744 3.83661 26.9559 3.90963 27.0137C3.98265 27.0715 4.07355 27.102 4.16667 27.1H9.31667C9.4357 27.0992 9.54957 27.0512 9.63333 26.9667C9.70327 26.8828 9.73898 26.7757 9.73333 26.6667C9.63333 25.5556 9.58333 24.4444 9.58333 23.3333ZM22.75 20C22.7344 19.8998 22.6842 19.8082 22.6081 19.7412C22.5319 19.6742 22.4347 19.636 22.3333 19.6333H12.6667C12.5653 19.636 12.4681 19.6742 12.3919 19.7412C12.3158 19.8082 12.2656 19.8998 12.25 20C12.15 21.0667 12.0833 22.2 12.0833 23.3333C12.0833 24.4667 12.0833 25.65 12.25 26.6667C12.2656 26.7669 12.3158 26.8585 12.3919 26.9255C12.4681 26.9925 12.5653 27.0306 12.6667 27.0333H22.3333C22.4347 27.0306 22.5319 26.9925 22.6081 26.9255C22.6842 26.8585 22.7344 26.7669 22.75 26.6667C22.85 25.6 22.9167 24.4667 22.9167 23.3333C22.9167 22.2 22.85 21.0167 22.75 20ZM30.8167 27.0833C30.9111 27.0832 31.003 27.0522 31.0782 26.995C31.1534 26.9378 31.2079 26.8577 31.2333 26.7667C31.5128 25.6433 31.6582 24.4909 31.6667 23.3333C31.6639 22.1819 31.524 21.035 31.25 19.9167C31.2254 19.8284 31.1734 19.7501 31.1015 19.6932C31.0297 19.6363 30.9416 19.6037 30.85 19.6H25.6833C25.6266 19.5986 25.5702 19.6099 25.5183 19.6329C25.4665 19.656 25.4203 19.6903 25.3833 19.7333C25.341 19.7737 25.3085 19.8232 25.2883 19.8781C25.2681 19.933 25.2607 19.9918 25.2667 20.05C25.3667 21.1611 25.4167 22.2722 25.4167 23.3833C25.4167 24.4944 25.3667 25.6056 25.2667 26.7167C25.2607 26.7749 25.2681 26.8336 25.2883 26.8885C25.3085 26.9434 25.341 26.9929 25.3833 27.0333C25.4203 27.0764 25.4665 27.1107 25.5183 27.1337C25.5702 27.1568 25.6266 27.168 25.6833 27.1667L30.8167 27.0833ZM13.1667 29.5833C13.1116 29.5849 13.0575 29.5983 13.0081 29.6226C12.9587 29.647 12.9151 29.6817 12.8803 29.7244C12.8455 29.7671 12.8203 29.8168 12.8065 29.8701C12.7926 29.9234 12.7904 29.9791 12.8 30.0333C13.8167 34.3833 15.7333 37.0833 17.5 37.0833C19.2667 37.0833 21.1667 34.4 22.1833 30.1C22.2007 30.0394 22.2021 29.9754 22.1875 29.9141C22.1729 29.8528 22.1428 29.7963 22.1 29.75C22.0621 29.7013 22.0143 29.6612 21.9597 29.6325C21.9051 29.6037 21.8449 29.587 21.7833 29.5833H13.1667ZM25.2 29.5833C25.1033 29.5844 25.0098 29.6179 24.9343 29.6783C24.8588 29.7387 24.8056 29.8226 24.7833 29.9167C24.4133 31.9134 23.7387 33.8414 22.7833 35.6333C22.7408 35.7097 22.7234 35.7975 22.7336 35.8843C22.7437 35.9711 22.7809 36.0526 22.8399 36.1171C22.8989 36.1816 22.9767 36.2259 23.0622 36.2438C23.1478 36.2617 23.2368 36.2522 23.3167 36.2167C26.0866 34.9623 28.3821 32.8537 29.8667 30.2C29.9032 30.1367 29.9225 30.0648 29.9225 29.9917C29.9225 29.9185 29.9032 29.8467 29.8667 29.7833C29.8313 29.722 29.7802 29.6712 29.7187 29.636C29.6572 29.6009 29.5875 29.5827 29.5167 29.5833H25.2ZM10.2167 30C10.1944 29.9059 10.1412 29.822 10.0657 29.7616C9.99022 29.7012 9.89668 29.6678 9.8 29.6667H5.5C5.42918 29.666 5.35946 29.6842 5.29796 29.7194C5.23647 29.7545 5.18541 29.8053 5.15 29.8667C5.11343 29.93 5.09418 30.0019 5.09418 30.075C5.09418 30.1481 5.11343 30.22 5.15 30.2833C6.63978 32.9007 8.92142 34.9781 11.6667 36.2167C11.7465 36.2522 11.8355 36.2617 11.9211 36.2438C12.0067 36.2259 12.0844 36.1816 12.1434 36.1171C12.2024 36.0526 12.2396 35.9711 12.2497 35.8843C12.2599 35.7975 12.2425 35.7097 12.2 35.6333C11.2583 33.8664 10.5896 31.9671 10.2167 30ZM9.8 17.0833C9.89668 17.0822 9.99022 17.0488 10.0657 16.9884C10.1412 16.928 10.1944 16.8441 10.2167 16.75C10.5887 14.7409 11.2689 12.8013 12.2333 11C12.2861 10.9305 12.3146 10.8456 12.3146 10.7583C12.3146 10.6711 12.2861 10.5862 12.2333 10.5167C12.2033 10.4721 12.1646 10.4341 12.1196 10.4049C12.0746 10.3756 12.0241 10.3557 11.9712 10.3464C11.9183 10.3371 11.8641 10.3385 11.8118 10.3506C11.7595 10.3626 11.7101 10.3851 11.6667 10.4167C8.89104 11.6788 6.59473 13.7998 5.11667 16.4667C5.0801 16.53 5.06084 16.6019 5.06084 16.675C5.06084 16.7481 5.0801 16.82 5.11667 16.8833C5.15208 16.9447 5.20314 16.9955 5.26463 17.0306C5.32612 17.0658 5.39584 17.084 5.46667 17.0833H9.8ZM24.7833 16.75C24.8056 16.8441 24.8588 16.928 24.9343 16.9884C25.0098 17.0488 25.1033 17.0822 25.2 17.0833H29.5167C29.5875 17.084 29.6572 17.0658 29.7187 17.0306C29.7802 16.9955 29.8313 16.9447 29.8667 16.8833C29.9032 16.82 29.9225 16.7481 29.9225 16.675C29.9225 16.6019 29.9032 16.53 29.8667 16.4667C28.3929 13.8024 26.1028 11.6817 23.3333 10.4167C23.2526 10.3797 23.1622 10.3694 23.0753 10.3874C22.9883 10.4054 22.9094 10.4507 22.85 10.5167C22.7998 10.5872 22.7728 10.6717 22.7728 10.7583C22.7728 10.845 22.7998 10.9294 22.85 11C23.7855 12.8062 24.4376 14.7455 24.7833 16.75ZM19.3 10.45C19.2591 10.4148 19.2261 10.3714 19.2031 10.3226C19.1801 10.2737 19.1677 10.2206 19.1667 10.1667V1.66667C19.1667 1.22464 18.9911 0.800716 18.6785 0.488155C18.3659 0.175595 17.942 0 17.5 0C17.058 0 16.634 0.175595 16.3215 0.488155C16.0089 0.800716 15.8333 1.22464 15.8333 1.66667V10.1667C15.8323 10.2206 15.8199 10.2737 15.7969 10.3226C15.7739 10.3714 15.7409 10.4148 15.7 10.45C14.2228 12.2031 13.2289 14.3115 12.8167 16.5667C12.7887 16.6237 12.7742 16.6864 12.7742 16.75C12.7742 16.8136 12.7887 16.8763 12.8167 16.9333C12.9049 17.0236 13.0239 17.0772 13.15 17.0833H21.7C21.7628 17.0827 21.8247 17.0678 21.881 17.0398C21.9373 17.0118 21.9865 16.9715 22.025 16.9218C22.0635 16.8721 22.0902 16.8143 22.1032 16.7528C22.1162 16.6913 22.1151 16.6277 22.1 16.5667C21.7195 14.3174 20.7538 12.2079 19.3 10.45ZM31.25 10C31.5802 9.99568 31.8956 9.8626 32.1291 9.62911C32.3626 9.39562 32.4957 9.08018 32.5 8.75V7.91667C32.5 7.80616 32.5439 7.70018 32.622 7.62204C32.7002 7.5439 32.8062 7.5 32.9167 7.5H33.75C34.0815 7.5 34.3995 7.3683 34.6339 7.13388C34.8683 6.89946 35 6.58152 35 6.25C35 5.91848 34.8683 5.60054 34.6339 5.36612C34.3995 5.1317 34.0815 5 33.75 5H32.9167C32.8062 5 32.7002 4.9561 32.622 4.87796C32.5439 4.79982 32.5 4.69384 32.5 4.58333V3.75C32.5 3.41848 32.3683 3.10054 32.1339 2.86612C31.8995 2.6317 31.5815 2.5 31.25 2.5C30.9185 2.5 30.6005 2.6317 30.3661 2.86612C30.1317 3.10054 30 3.41848 30 3.75V4.58333C30 4.69384 29.9561 4.79982 29.878 4.87796C29.7998 4.9561 29.6938 5 29.5833 5H28.75C28.4185 5 28.1005 5.1317 27.8661 5.36612C27.6317 5.60054 27.5 5.91848 27.5 6.25C27.5 6.58152 27.6317 6.89946 27.8661 7.13388C28.1005 7.3683 28.4185 7.5 28.75 7.5H29.5833C29.6938 7.5 29.7998 7.5439 29.878 7.62204C29.9561 7.70018 30 7.80616 30 7.91667V8.75C30.0043 9.08018 30.1374 9.39562 30.3709 9.62911C30.6044 9.8626 30.9198 9.99568 31.25 10ZM38.75 34.1667H37.0833C36.9728 34.1667 36.8668 34.1228 36.7887 34.0446C36.7106 33.9665 36.6667 33.8605 36.6667 33.75V32.0833C36.6667 31.7518 36.535 31.4339 36.3005 31.1994C36.0661 30.965 35.7482 30.8333 35.4167 30.8333C35.0851 30.8333 34.7672 30.965 34.5328 31.1994C34.2984 31.4339 34.1667 31.7518 34.1667 32.0833V33.75C34.1667 33.8605 34.1228 33.9665 34.0446 34.0446C33.9665 34.1228 33.8605 34.1667 33.75 34.1667H32.0833C31.7518 34.1667 31.4339 34.2984 31.1994 34.5328C30.965 34.7672 30.8333 35.0851 30.8333 35.4167C30.8333 35.7482 30.965 36.0661 31.1994 36.3005C31.4339 36.535 31.7518 36.6667 32.0833 36.6667H33.75C33.8605 36.6667 33.9665 36.7106 34.0446 36.7887C34.1228 36.8668 34.1667 36.9728 34.1667 37.0833V38.75C34.1667 39.0815 34.2984 39.3995 34.5328 39.6339C34.7672 39.8683 35.0851 40 35.4167 40C35.7482 40 36.0661 39.8683 36.3005 39.6339C36.535 39.3995 36.6667 39.0815 36.6667 38.75V37.0833C36.6667 36.9728 36.7106 36.8668 36.7887 36.7887C36.8668 36.7106 36.9728 36.6667 37.0833 36.6667H38.75C39.0815 36.6667 39.3995 36.535 39.6339 36.3005C39.8683 36.0661 40 35.7482 40 35.4167C40 35.0851 39.8683 34.7672 39.6339 34.5328C39.3995 34.2984 39.0815 34.1667 38.75 34.1667ZM6.25 6.66667H5.41667C5.30616 6.66667 5.20018 6.62277 5.12204 6.54463C5.0439 6.46649 5 6.36051 5 6.25V5.41667C5 5.08515 4.8683 4.7672 4.63388 4.53278C4.39946 4.29836 4.08152 4.16667 3.75 4.16667C3.41848 4.16667 3.10054 4.29836 2.86612 4.53278C2.6317 4.7672 2.5 5.08515 2.5 5.41667V6.25C2.5 6.36051 2.4561 6.46649 2.37796 6.54463C2.29982 6.62277 2.19384 6.66667 2.08333 6.66667H1.25C0.918479 6.66667 0.600537 6.79836 0.366116 7.03278C0.131696 7.2672 0 7.58515 0 7.91667C0 8.24819 0.131696 8.56613 0.366116 8.80055C0.600537 9.03497 0.918479 9.16667 1.25 9.16667H2.08333C2.19384 9.16667 2.29982 9.21056 2.37796 9.2887C2.4561 9.36685 2.5 9.47283 2.5 9.58333V10.4167C2.5 10.7482 2.6317 11.0661 2.86612 11.3006C3.10054 11.535 3.41848 11.6667 3.75 11.6667C4.08152 11.6667 4.39946 11.535 4.63388 11.3006C4.8683 11.0661 5 10.7482 5 10.4167V9.58333C5 9.47283 5.0439 9.36685 5.12204 9.2887C5.20018 9.21056 5.30616 9.16667 5.41667 9.16667H6.25C6.58152 9.16667 6.89946 9.03497 7.13388 8.80055C7.3683 8.56613 7.5 8.24819 7.5 7.91667C7.5 7.58515 7.3683 7.2672 7.13388 7.03278C6.89946 6.79836 6.58152 6.66667 6.25 6.66667Z"/>
</mask>
<path d="M9.58333 23.3333C9.58333 22.2222 9.63333 21.1111 9.73333 20C9.7383 19.9432 9.73203 19.886 9.71487 19.8317C9.69771 19.7774 9.67 19.7269 9.63333 19.6833C9.54957 19.5988 9.4357 19.5508 9.31667 19.55H4.16667C4.07507 19.5537 3.987 19.5863 3.91513 19.6432C3.84325 19.7001 3.79127 19.7784 3.76667 19.8667C3.48303 21.0005 3.33753 22.1645 3.33333 23.3333C3.3321 24.497 3.47769 25.6561 3.76667 26.7833C3.78605 26.8744 3.83661 26.9559 3.90963 27.0137C3.98265 27.0715 4.07355 27.102 4.16667 27.1H9.31667C9.4357 27.0992 9.54957 27.0512 9.63333 26.9667C9.70327 26.8828 9.73898 26.7757 9.73333 26.6667C9.63333 25.5556 9.58333 24.4444 9.58333 23.3333ZM22.75 20C22.7344 19.8998 22.6842 19.8082 22.6081 19.7412C22.5319 19.6742 22.4347 19.636 22.3333 19.6333H12.6667C12.5653 19.636 12.4681 19.6742 12.3919 19.7412C12.3158 19.8082 12.2656 19.8998 12.25 20C12.15 21.0667 12.0833 22.2 12.0833 23.3333C12.0833 24.4667 12.0833 25.65 12.25 26.6667C12.2656 26.7669 12.3158 26.8585 12.3919 26.9255C12.4681 26.9925 12.5653 27.0306 12.6667 27.0333H22.3333C22.4347 27.0306 22.5319 26.9925 22.6081 26.9255C22.6842 26.8585 22.7344 26.7669 22.75 26.6667C22.85 25.6 22.9167 24.4667 22.9167 23.3333C22.9167 22.2 22.85 21.0167 22.75 20ZM30.8167 27.0833C30.9111 27.0832 31.003 27.0522 31.0782 26.995C31.1534 26.9378 31.2079 26.8577 31.2333 26.7667C31.5128 25.6433 31.6582 24.4909 31.6667 23.3333C31.6639 22.1819 31.524 21.035 31.25 19.9167C31.2254 19.8284 31.1734 19.7501 31.1015 19.6932C31.0297 19.6363 30.9416 19.6037 30.85 19.6H25.6833C25.6266 19.5986 25.5702 19.6099 25.5183 19.6329C25.4665 19.656 25.4203 19.6903 25.3833 19.7333C25.341 19.7737 25.3085 19.8232 25.2883 19.8781C25.2681 19.933 25.2607 19.9918 25.2667 20.05C25.3667 21.1611 25.4167 22.2722 25.4167 23.3833C25.4167 24.4944 25.3667 25.6056 25.2667 26.7167C25.2607 26.7749 25.2681 26.8336 25.2883 26.8885C25.3085 26.9434 25.341 26.9929 25.3833 27.0333C25.4203 27.0764 25.4665 27.1107 25.5183 27.1337C25.5702 27.1568 25.6266 27.168 25.6833 27.1667L30.8167 27.0833ZM13.1667 29.5833C13.1116 29.5849 13.0575 29.5983 13.0081 29.6226C12.9587 29.647 12.9151 29.6817 12.8803 29.7244C12.8455 29.7671 12.8203 29.8168 12.8065 29.8701C12.7926 29.9234 12.7904 29.9791 12.8 30.0333C13.8167 34.3833 15.7333 37.0833 17.5 37.0833C19.2667 37.0833 21.1667 34.4 22.1833 30.1C22.2007 30.0394 22.2021 29.9754 22.1875 29.9141C22.1729 29.8528 22.1428 29.7963 22.1 29.75C22.0621 29.7013 22.0143 29.6612 21.9597 29.6325C21.9051 29.6037 21.8449 29.587 21.7833 29.5833H13.1667ZM25.2 29.5833C25.1033 29.5844 25.0098 29.6179 24.9343 29.6783C24.8588 29.7387 24.8056 29.8226 24.7833 29.9167C24.4133 31.9134 23.7387 33.8414 22.7833 35.6333C22.7408 35.7097 22.7234 35.7975 22.7336 35.8843C22.7437 35.9711 22.7809 36.0526 22.8399 36.1171C22.8989 36.1816 22.9767 36.2259 23.0622 36.2438C23.1478 36.2617 23.2368 36.2522 23.3167 36.2167C26.0866 34.9623 28.3821 32.8537 29.8667 30.2C29.9032 30.1367 29.9225 30.0648 29.9225 29.9917C29.9225 29.9185 29.9032 29.8467 29.8667 29.7833C29.8313 29.722 29.7802 29.6712 29.7187 29.636C29.6572 29.6009 29.5875 29.5827 29.5167 29.5833H25.2ZM10.2167 30C10.1944 29.9059 10.1412 29.822 10.0657 29.7616C9.99022 29.7012 9.89668 29.6678 9.8 29.6667H5.5C5.42918 29.666 5.35946 29.6842 5.29796 29.7194C5.23647 29.7545 5.18541 29.8053 5.15 29.8667C5.11343 29.93 5.09418 30.0019 5.09418 30.075C5.09418 30.1481 5.11343 30.22 5.15 30.2833C6.63978 32.9007 8.92142 34.9781 11.6667 36.2167C11.7465 36.2522 11.8355 36.2617 11.9211 36.2438C12.0067 36.2259 12.0844 36.1816 12.1434 36.1171C12.2024 36.0526 12.2396 35.9711 12.2497 35.8843C12.2599 35.7975 12.2425 35.7097 12.2 35.6333C11.2583 33.8664 10.5896 31.9671 10.2167 30ZM9.8 17.0833C9.89668 17.0822 9.99022 17.0488 10.0657 16.9884C10.1412 16.928 10.1944 16.8441 10.2167 16.75C10.5887 14.7409 11.2689 12.8013 12.2333 11C12.2861 10.9305 12.3146 10.8456 12.3146 10.7583C12.3146 10.6711 12.2861 10.5862 12.2333 10.5167C12.2033 10.4721 12.1646 10.4341 12.1196 10.4049C12.0746 10.3756 12.0241 10.3557 11.9712 10.3464C11.9183 10.3371 11.8641 10.3385 11.8118 10.3506C11.7595 10.3626 11.7101 10.3851 11.6667 10.4167C8.89104 11.6788 6.59473 13.7998 5.11667 16.4667C5.0801 16.53 5.06084 16.6019 5.06084 16.675C5.06084 16.7481 5.0801 16.82 5.11667 16.8833C5.15208 16.9447 5.20314 16.9955 5.26463 17.0306C5.32612 17.0658 5.39584 17.084 5.46667 17.0833H9.8ZM24.7833 16.75C24.8056 16.8441 24.8588 16.928 24.9343 16.9884C25.0098 17.0488 25.1033 17.0822 25.2 17.0833H29.5167C29.5875 17.084 29.6572 17.0658 29.7187 17.0306C29.7802 16.9955 29.8313 16.9447 29.8667 16.8833C29.9032 16.82 29.9225 16.7481 29.9225 16.675C29.9225 16.6019 29.9032 16.53 29.8667 16.4667C28.3929 13.8024 26.1028 11.6817 23.3333 10.4167C23.2526 10.3797 23.1622 10.3694 23.0753 10.3874C22.9883 10.4054 22.9094 10.4507 22.85 10.5167C22.7998 10.5872 22.7728 10.6717 22.7728 10.7583C22.7728 10.845 22.7998 10.9294 22.85 11C23.7855 12.8062 24.4376 14.7455 24.7833 16.75ZM19.3 10.45C19.2591 10.4148 19.2261 10.3714 19.2031 10.3226C19.1801 10.2737 19.1677 10.2206 19.1667 10.1667V1.66667C19.1667 1.22464 18.9911 0.800716 18.6785 0.488155C18.3659 0.175595 17.942 0 17.5 0C17.058 0 16.634 0.175595 16.3215 0.488155C16.0089 0.800716 15.8333 1.22464 15.8333 1.66667V10.1667C15.8323 10.2206 15.8199 10.2737 15.7969 10.3226C15.7739 10.3714 15.7409 10.4148 15.7 10.45C14.2228 12.2031 13.2289 14.3115 12.8167 16.5667C12.7887 16.6237 12.7742 16.6864 12.7742 16.75C12.7742 16.8136 12.7887 16.8763 12.8167 16.9333C12.9049 17.0236 13.0239 17.0772 13.15 17.0833H21.7C21.7628 17.0827 21.8247 17.0678 21.881 17.0398C21.9373 17.0118 21.9865 16.9715 22.025 16.9218C22.0635 16.8721 22.0902 16.8143 22.1032 16.7528C22.1162 16.6913 22.1151 16.6277 22.1 16.5667C21.7195 14.3174 20.7538 12.2079 19.3 10.45ZM31.25 10C31.5802 9.99568 31.8956 9.8626 32.1291 9.62911C32.3626 9.39562 32.4957 9.08018 32.5 8.75V7.91667C32.5 7.80616 32.5439 7.70018 32.622 7.62204C32.7002 7.5439 32.8062 7.5 32.9167 7.5H33.75C34.0815 7.5 34.3995 7.3683 34.6339 7.13388C34.8683 6.89946 35 6.58152 35 6.25C35 5.91848 34.8683 5.60054 34.6339 5.36612C34.3995 5.1317 34.0815 5 33.75 5H32.9167C32.8062 5 32.7002 4.9561 32.622 4.87796C32.5439 4.79982 32.5 4.69384 32.5 4.58333V3.75C32.5 3.41848 32.3683 3.10054 32.1339 2.86612C31.8995 2.6317 31.5815 2.5 31.25 2.5C30.9185 2.5 30.6005 2.6317 30.3661 2.86612C30.1317 3.10054 30 3.41848 30 3.75V4.58333C30 4.69384 29.9561 4.79982 29.878 4.87796C29.7998 4.9561 29.6938 5 29.5833 5H28.75C28.4185 5 28.1005 5.1317 27.8661 5.36612C27.6317 5.60054 27.5 5.91848 27.5 6.25C27.5 6.58152 27.6317 6.89946 27.8661 7.13388C28.1005 7.3683 28.4185 7.5 28.75 7.5H29.5833C29.6938 7.5 29.7998 7.5439 29.878 7.62204C29.9561 7.70018 30 7.80616 30 7.91667V8.75C30.0043 9.08018 30.1374 9.39562 30.3709 9.62911C30.6044 9.8626 30.9198 9.99568 31.25 10ZM38.75 34.1667H37.0833C36.9728 34.1667 36.8668 34.1228 36.7887 34.0446C36.7106 33.9665 36.6667 33.8605 36.6667 33.75V32.0833C36.6667 31.7518 36.535 31.4339 36.3005 31.1994C36.0661 30.965 35.7482 30.8333 35.4167 30.8333C35.0851 30.8333 34.7672 30.965 34.5328 31.1994C34.2984 31.4339 34.1667 31.7518 34.1667 32.0833V33.75C34.1667 33.8605 34.1228 33.9665 34.0446 34.0446C33.9665 34.1228 33.8605 34.1667 33.75 34.1667H32.0833C31.7518 34.1667 31.4339 34.2984 31.1994 34.5328C30.965 34.7672 30.8333 35.0851 30.8333 35.4167C30.8333 35.7482 30.965 36.0661 31.1994 36.3005C31.4339 36.535 31.7518 36.6667 32.0833 36.6667H33.75C33.8605 36.6667 33.9665 36.7106 34.0446 36.7887C34.1228 36.8668 34.1667 36.9728 34.1667 37.0833V38.75C34.1667 39.0815 34.2984 39.3995 34.5328 39.6339C34.7672 39.8683 35.0851 40 35.4167 40C35.7482 40 36.0661 39.8683 36.3005 39.6339C36.535 39.3995 36.6667 39.0815 36.6667 38.75V37.0833C36.6667 36.9728 36.7106 36.8668 36.7887 36.7887C36.8668 36.7106 36.9728 36.6667 37.0833 36.6667H38.75C39.0815 36.6667 39.3995 36.535 39.6339 36.3005C39.8683 36.0661 40 35.7482 40 35.4167C40 35.0851 39.8683 34.7672 39.6339 34.5328C39.3995 34.2984 39.0815 34.1667 38.75 34.1667ZM6.25 6.66667H5.41667C5.30616 6.66667 5.20018 6.62277 5.12204 6.54463C5.0439 6.46649 5 6.36051 5 6.25V5.41667C5 5.08515 4.8683 4.7672 4.63388 4.53278C4.39946 4.29836 4.08152 4.16667 3.75 4.16667C3.41848 4.16667 3.10054 4.29836 2.86612 4.53278C2.6317 4.7672 2.5 5.08515 2.5 5.41667V6.25C2.5 6.36051 2.4561 6.46649 2.37796 6.54463C2.29982 6.62277 2.19384 6.66667 2.08333 6.66667H1.25C0.918479 6.66667 0.600537 6.79836 0.366116 7.03278C0.131696 7.2672 0 7.58515 0 7.91667C0 8.24819 0.131696 8.56613 0.366116 8.80055C0.600537 9.03497 0.918479 9.16667 1.25 9.16667H2.08333C2.19384 9.16667 2.29982 9.21056 2.37796 9.2887C2.4561 9.36685 2.5 9.47283 2.5 9.58333V10.4167C2.5 10.7482 2.6317 11.0661 2.86612 11.3006C3.10054 11.535 3.41848 11.6667 3.75 11.6667C4.08152 11.6667 4.39946 11.535 4.63388 11.3006C4.8683 11.0661 5 10.7482 5 10.4167V9.58333C5 9.47283 5.0439 9.36685 5.12204 9.2887C5.20018 9.21056 5.30616 9.16667 5.41667 9.16667H6.25C6.58152 9.16667 6.89946 9.03497 7.13388 8.80055C7.3683 8.56613 7.5 8.24819 7.5 7.91667C7.5 7.58515 7.3683 7.2672 7.13388 7.03278C6.89946 6.79836 6.58152 6.66667 6.25 6.66667Z" fill="url(#paint0_radial_6033_16974)" shape-rendering="crispEdges"/>
<path d="M9.58333 23.3333C9.58333 22.2222 9.63333 21.1111 9.73333 20C9.7383 19.9432 9.73203 19.886 9.71487 19.8317C9.69771 19.7774 9.67 19.7269 9.63333 19.6833C9.54957 19.5988 9.4357 19.5508 9.31667 19.55H4.16667C4.07507 19.5537 3.987 19.5863 3.91513 19.6432C3.84325 19.7001 3.79127 19.7784 3.76667 19.8667C3.48303 21.0005 3.33753 22.1645 3.33333 23.3333C3.3321 24.497 3.47769 25.6561 3.76667 26.7833C3.78605 26.8744 3.83661 26.9559 3.90963 27.0137C3.98265 27.0715 4.07355 27.102 4.16667 27.1H9.31667C9.4357 27.0992 9.54957 27.0512 9.63333 26.9667C9.70327 26.8828 9.73898 26.7757 9.73333 26.6667C9.63333 25.5556 9.58333 24.4444 9.58333 23.3333ZM22.75 20C22.7344 19.8998 22.6842 19.8082 22.6081 19.7412C22.5319 19.6742 22.4347 19.636 22.3333 19.6333H12.6667C12.5653 19.636 12.4681 19.6742 12.3919 19.7412C12.3158 19.8082 12.2656 19.8998 12.25 20C12.15 21.0667 12.0833 22.2 12.0833 23.3333C12.0833 24.4667 12.0833 25.65 12.25 26.6667C12.2656 26.7669 12.3158 26.8585 12.3919 26.9255C12.4681 26.9925 12.5653 27.0306 12.6667 27.0333H22.3333C22.4347 27.0306 22.5319 26.9925 22.6081 26.9255C22.6842 26.8585 22.7344 26.7669 22.75 26.6667C22.85 25.6 22.9167 24.4667 22.9167 23.3333C22.9167 22.2 22.85 21.0167 22.75 20ZM30.8167 27.0833C30.9111 27.0832 31.003 27.0522 31.0782 26.995C31.1534 26.9378 31.2079 26.8577 31.2333 26.7667C31.5128 25.6433 31.6582 24.4909 31.6667 23.3333C31.6639 22.1819 31.524 21.035 31.25 19.9167C31.2254 19.8284 31.1734 19.7501 31.1015 19.6932C31.0297 19.6363 30.9416 19.6037 30.85 19.6H25.6833C25.6266 19.5986 25.5702 19.6099 25.5183 19.6329C25.4665 19.656 25.4203 19.6903 25.3833 19.7333C25.341 19.7737 25.3085 19.8232 25.2883 19.8781C25.2681 19.933 25.2607 19.9918 25.2667 20.05C25.3667 21.1611 25.4167 22.2722 25.4167 23.3833C25.4167 24.4944 25.3667 25.6056 25.2667 26.7167C25.2607 26.7749 25.2681 26.8336 25.2883 26.8885C25.3085 26.9434 25.341 26.9929 25.3833 27.0333C25.4203 27.0764 25.4665 27.1107 25.5183 27.1337C25.5702 27.1568 25.6266 27.168 25.6833 27.1667L30.8167 27.0833ZM13.1667 29.5833C13.1116 29.5849 13.0575 29.5983 13.0081 29.6226C12.9587 29.647 12.9151 29.6817 12.8803 29.7244C12.8455 29.7671 12.8203 29.8168 12.8065 29.8701C12.7926 29.9234 12.7904 29.9791 12.8 30.0333C13.8167 34.3833 15.7333 37.0833 17.5 37.0833C19.2667 37.0833 21.1667 34.4 22.1833 30.1C22.2007 30.0394 22.2021 29.9754 22.1875 29.9141C22.1729 29.8528 22.1428 29.7963 22.1 29.75C22.0621 29.7013 22.0143 29.6612 21.9597 29.6325C21.9051 29.6037 21.8449 29.587 21.7833 29.5833H13.1667ZM25.2 29.5833C25.1033 29.5844 25.0098 29.6179 24.9343 29.6783C24.8588 29.7387 24.8056 29.8226 24.7833 29.9167C24.4133 31.9134 23.7387 33.8414 22.7833 35.6333C22.7408 35.7097 22.7234 35.7975 22.7336 35.8843C22.7437 35.9711 22.7809 36.0526 22.8399 36.1171C22.8989 36.1816 22.9767 36.2259 23.0622 36.2438C23.1478 36.2617 23.2368 36.2522 23.3167 36.2167C26.0866 34.9623 28.3821 32.8537 29.8667 30.2C29.9032 30.1367 29.9225 30.0648 29.9225 29.9917C29.9225 29.9185 29.9032 29.8467 29.8667 29.7833C29.8313 29.722 29.7802 29.6712 29.7187 29.636C29.6572 29.6009 29.5875 29.5827 29.5167 29.5833H25.2ZM10.2167 30C10.1944 29.9059 10.1412 29.822 10.0657 29.7616C9.99022 29.7012 9.89668 29.6678 9.8 29.6667H5.5C5.42918 29.666 5.35946 29.6842 5.29796 29.7194C5.23647 29.7545 5.18541 29.8053 5.15 29.8667C5.11343 29.93 5.09418 30.0019 5.09418 30.075C5.09418 30.1481 5.11343 30.22 5.15 30.2833C6.63978 32.9007 8.92142 34.9781 11.6667 36.2167C11.7465 36.2522 11.8355 36.2617 11.9211 36.2438C12.0067 36.2259 12.0844 36.1816 12.1434 36.1171C12.2024 36.0526 12.2396 35.9711 12.2497 35.8843C12.2599 35.7975 12.2425 35.7097 12.2 35.6333C11.2583 33.8664 10.5896 31.9671 10.2167 30ZM9.8 17.0833C9.89668 17.0822 9.99022 17.0488 10.0657 16.9884C10.1412 16.928 10.1944 16.8441 10.2167 16.75C10.5887 14.7409 11.2689 12.8013 12.2333 11C12.2861 10.9305 12.3146 10.8456 12.3146 10.7583C12.3146 10.6711 12.2861 10.5862 12.2333 10.5167C12.2033 10.4721 12.1646 10.4341 12.1196 10.4049C12.0746 10.3756 12.0241 10.3557 11.9712 10.3464C11.9183 10.3371 11.8641 10.3385 11.8118 10.3506C11.7595 10.3626 11.7101 10.3851 11.6667 10.4167C8.89104 11.6788 6.59473 13.7998 5.11667 16.4667C5.0801 16.53 5.06084 16.6019 5.06084 16.675C5.06084 16.7481 5.0801 16.82 5.11667 16.8833C5.15208 16.9447 5.20314 16.9955 5.26463 17.0306C5.32612 17.0658 5.39584 17.084 5.46667 17.0833H9.8ZM24.7833 16.75C24.8056 16.8441 24.8588 16.928 24.9343 16.9884C25.0098 17.0488 25.1033 17.0822 25.2 17.0833H29.5167C29.5875 17.084 29.6572 17.0658 29.7187 17.0306C29.7802 16.9955 29.8313 16.9447 29.8667 16.8833C29.9032 16.82 29.9225 16.7481 29.9225 16.675C29.9225 16.6019 29.9032 16.53 29.8667 16.4667C28.3929 13.8024 26.1028 11.6817 23.3333 10.4167C23.2526 10.3797 23.1622 10.3694 23.0753 10.3874C22.9883 10.4054 22.9094 10.4507 22.85 10.5167C22.7998 10.5872 22.7728 10.6717 22.7728 10.7583C22.7728 10.845 22.7998 10.9294 22.85 11C23.7855 12.8062 24.4376 14.7455 24.7833 16.75ZM19.3 10.45C19.2591 10.4148 19.2261 10.3714 19.2031 10.3226C19.1801 10.2737 19.1677 10.2206 19.1667 10.1667V1.66667C19.1667 1.22464 18.9911 0.800716 18.6785 0.488155C18.3659 0.175595 17.942 0 17.5 0C17.058 0 16.634 0.175595 16.3215 0.488155C16.0089 0.800716 15.8333 1.22464 15.8333 1.66667V10.1667C15.8323 10.2206 15.8199 10.2737 15.7969 10.3226C15.7739 10.3714 15.7409 10.4148 15.7 10.45C14.2228 12.2031 13.2289 14.3115 12.8167 16.5667C12.7887 16.6237 12.7742 16.6864 12.7742 16.75C12.7742 16.8136 12.7887 16.8763 12.8167 16.9333C12.9049 17.0236 13.0239 17.0772 13.15 17.0833H21.7C21.7628 17.0827 21.8247 17.0678 21.881 17.0398C21.9373 17.0118 21.9865 16.9715 22.025 16.9218C22.0635 16.8721 22.0902 16.8143 22.1032 16.7528C22.1162 16.6913 22.1151 16.6277 22.1 16.5667C21.7195 14.3174 20.7538 12.2079 19.3 10.45ZM31.25 10C31.5802 9.99568 31.8956 9.8626 32.1291 9.62911C32.3626 9.39562 32.4957 9.08018 32.5 8.75V7.91667C32.5 7.80616 32.5439 7.70018 32.622 7.62204C32.7002 7.5439 32.8062 7.5 32.9167 7.5H33.75C34.0815 7.5 34.3995 7.3683 34.6339 7.13388C34.8683 6.89946 35 6.58152 35 6.25C35 5.91848 34.8683 5.60054 34.6339 5.36612C34.3995 5.1317 34.0815 5 33.75 5H32.9167C32.8062 5 32.7002 4.9561 32.622 4.87796C32.5439 4.79982 32.5 4.69384 32.5 4.58333V3.75C32.5 3.41848 32.3683 3.10054 32.1339 2.86612C31.8995 2.6317 31.5815 2.5 31.25 2.5C30.9185 2.5 30.6005 2.6317 30.3661 2.86612C30.1317 3.10054 30 3.41848 30 3.75V4.58333C30 4.69384 29.9561 4.79982 29.878 4.87796C29.7998 4.9561 29.6938 5 29.5833 5H28.75C28.4185 5 28.1005 5.1317 27.8661 5.36612C27.6317 5.60054 27.5 5.91848 27.5 6.25C27.5 6.58152 27.6317 6.89946 27.8661 7.13388C28.1005 7.3683 28.4185 7.5 28.75 7.5H29.5833C29.6938 7.5 29.7998 7.5439 29.878 7.62204C29.9561 7.70018 30 7.80616 30 7.91667V8.75C30.0043 9.08018 30.1374 9.39562 30.3709 9.62911C30.6044 9.8626 30.9198 9.99568 31.25 10ZM38.75 34.1667H37.0833C36.9728 34.1667 36.8668 34.1228 36.7887 34.0446C36.7106 33.9665 36.6667 33.8605 36.6667 33.75V32.0833C36.6667 31.7518 36.535 31.4339 36.3005 31.1994C36.0661 30.965 35.7482 30.8333 35.4167 30.8333C35.0851 30.8333 34.7672 30.965 34.5328 31.1994C34.2984 31.4339 34.1667 31.7518 34.1667 32.0833V33.75C34.1667 33.8605 34.1228 33.9665 34.0446 34.0446C33.9665 34.1228 33.8605 34.1667 33.75 34.1667H32.0833C31.7518 34.1667 31.4339 34.2984 31.1994 34.5328C30.965 34.7672 30.8333 35.0851 30.8333 35.4167C30.8333 35.7482 30.965 36.0661 31.1994 36.3005C31.4339 36.535 31.7518 36.6667 32.0833 36.6667H33.75C33.8605 36.6667 33.9665 36.7106 34.0446 36.7887C34.1228 36.8668 34.1667 36.9728 34.1667 37.0833V38.75C34.1667 39.0815 34.2984 39.3995 34.5328 39.6339C34.7672 39.8683 35.0851 40 35.4167 40C35.7482 40 36.0661 39.8683 36.3005 39.6339C36.535 39.3995 36.6667 39.0815 36.6667 38.75V37.0833C36.6667 36.9728 36.7106 36.8668 36.7887 36.7887C36.8668 36.7106 36.9728 36.6667 37.0833 36.6667H38.75C39.0815 36.6667 39.3995 36.535 39.6339 36.3005C39.8683 36.0661 40 35.7482 40 35.4167C40 35.0851 39.8683 34.7672 39.6339 34.5328C39.3995 34.2984 39.0815 34.1667 38.75 34.1667ZM6.25 6.66667H5.41667C5.30616 6.66667 5.20018 6.62277 5.12204 6.54463C5.0439 6.46649 5 6.36051 5 6.25V5.41667C5 5.08515 4.8683 4.7672 4.63388 4.53278C4.39946 4.29836 4.08152 4.16667 3.75 4.16667C3.41848 4.16667 3.10054 4.29836 2.86612 4.53278C2.6317 4.7672 2.5 5.08515 2.5 5.41667V6.25C2.5 6.36051 2.4561 6.46649 2.37796 6.54463C2.29982 6.62277 2.19384 6.66667 2.08333 6.66667H1.25C0.918479 6.66667 0.600537 6.79836 0.366116 7.03278C0.131696 7.2672 0 7.58515 0 7.91667C0 8.24819 0.131696 8.56613 0.366116 8.80055C0.600537 9.03497 0.918479 9.16667 1.25 9.16667H2.08333C2.19384 9.16667 2.29982 9.21056 2.37796 9.2887C2.4561 9.36685 2.5 9.47283 2.5 9.58333V10.4167C2.5 10.7482 2.6317 11.0661 2.86612 11.3006C3.10054 11.535 3.41848 11.6667 3.75 11.6667C4.08152 11.6667 4.39946 11.535 4.63388 11.3006C4.8683 11.0661 5 10.7482 5 10.4167V9.58333C5 9.47283 5.0439 9.36685 5.12204 9.2887C5.20018 9.21056 5.30616 9.16667 5.41667 9.16667H6.25C6.58152 9.16667 6.89946 9.03497 7.13388 8.80055C7.3683 8.56613 7.5 8.24819 7.5 7.91667C7.5 7.58515 7.3683 7.2672 7.13388 7.03278C6.89946 6.79836 6.58152 6.66667 6.25 6.66667Z" stroke="url(#paint1_linear_6033_16974)" shape-rendering="crispEdges" mask="url(#path-1-inside-1_6033_16974)"/>
</g>
</g>
<defs>
<filter id="filter0_di_6033_16974" x="-7" y="-5" width="54" height="54" filterUnits="userSpaceOnUse" color-interpolation-filters="sRGB">
<feFlood flood-opacity="0" result="BackgroundImageFix"/>
<feColorMatrix in="SourceAlpha" type="matrix" values="0 0 0 0 0 0 0 0 0 0 0 0 0 0 0 0 0 0 127 0" result="hardAlpha"/>
<feOffset dy="2"/>
<feGaussianBlur stdDeviation="3.5"/>
<feComposite in2="hardAlpha" operator="out"/>
<feColorMatrix type="matrix" values="0 0 0 0 0 0 0 0 0 0 0 0 0 0 0 0 0 0 0.1 0"/>
<feBlend mode="normal" in2="BackgroundImageFix" result="effect1_dropShadow_6033_16974"/>
<feBlend mode="normal" in="SourceGraphic" in2="effect1_dropShadow_6033_16974" result="shape"/>
<feColorMatrix in="SourceAlpha" type="matrix" values="0 0 0 0 0 0 0 0 0 0 0 0 0 0 0 0 0 0 127 0" result="hardAlpha"/>
<feOffset dy="1"/>
<feGaussianBlur stdDeviation="1"/>
<feComposite in2="hardAlpha" operator="arithmetic" k2="-1" k3="1"/>
<feColorMatrix type="matrix" values="0 0 0 0 0 0 0 0 0 0 0 0 0 0 0 0 0 0 0.4 0"/>
<feBlend mode="normal" in2="shape" result="effect2_innerShadow_6033_16974"/>
</filter>
<radialGradient id="paint0_radial_6033_16974" cx="0" cy="0" r="1" gradientUnits="userSpaceOnUse" gradientTransform="translate(20 -1.90476) rotate(90) scale(69.5238)">
<stop stop-color="white"/>
<stop offset="1" stop-color="white" stop-opacity="0"/>
</radialGradient>
<linearGradient id="paint1_linear_6033_16974" x1="20" y1="0" x2="20" y2="40" gradientUnits="userSpaceOnUse">
<stop offset="0.735221" stop-color="white" stop-opacity="0"/>
<stop offset="1" stop-color="white" stop-opacity="0.8"/>
</linearGradient>
<clipPath id="clip0_6033_16974">
<rect width="40" height="40" fill="white"/>
</clipPath>
</defs>
</svg>
