<svg width="40" height="40" viewBox="0 0 40 40" fill="none" xmlns="http://www.w3.org/2000/svg">
<g clip-path="url(#clip0_6033_16866)">
<g filter="url(#filter0_di_6033_16866)">
<path d="M23.3518 7.70589C24.6366 9.12665 25.5518 10.8419 26.0165 12.7002C26.4813 14.5584 26.4814 16.5026 26.0168 18.3609L25.8984 18.7976L31.5651 26.0859C32.0422 26.6992 32.3523 27.4255 32.4654 28.1943C32.5784 28.963 32.4905 29.7479 32.2101 30.4726C32.4104 30.5287 32.621 30.5373 32.8251 30.4976L33.0251 30.4476C33.4426 30.3144 33.8957 30.351 34.2864 30.5494C34.6771 30.7478 34.9739 31.0922 35.1126 31.5078C35.2513 31.9235 35.2208 32.3771 35.0275 32.7704C34.8343 33.1637 34.4939 33.465 34.0801 33.6092C32.9965 33.9815 31.8131 33.9376 30.7601 33.4859C30.4323 33.3473 30.1214 33.1718 29.8334 32.9626C29.1425 33.2678 28.3858 33.3942 27.6332 33.3301C26.8806 33.2661 26.1562 33.0135 25.5268 32.5959L25.2534 32.3976L17.9668 26.7309C16.0549 27.2888 14.032 27.348 12.0907 26.9028C10.1495 26.4576 8.3545 25.5228 6.87677 24.1876C10.438 22.4493 13.6847 20.1298 16.4834 17.3242C19.2917 14.5229 21.613 11.2711 23.3518 7.70589ZM20.6984 5.52256C19.09 9.03788 16.8642 12.2363 14.1268 14.9659C11.3987 17.7009 8.20268 19.925 4.69011 21.5326C3.35342 19.301 2.80052 16.6869 3.11917 14.1052C3.43783 11.5235 4.60978 9.12227 6.44896 7.28271C8.28814 5.44315 10.6891 4.27069 13.2707 3.9515C15.8524 3.63231 18.4666 4.18634 20.6984 5.52256Z" fill="url(#paint0_radial_6033_16866)" shape-rendering="crispEdges"/>
<path d="M23.459 8.60742C24.4388 9.84718 25.1464 11.2829 25.5312 12.8213C25.9761 14.5999 25.9759 16.4607 25.5312 18.2393L25.416 18.667L25.3506 18.9072L25.5039 19.1045L31.1699 26.3926H31.1709C31.5949 26.9376 31.8702 27.5834 31.9707 28.2666C32.0712 28.9498 31.9933 29.6479 31.7441 30.292L31.5449 30.8057L32.0752 30.9541C32.3505 31.0313 32.6403 31.0429 32.9209 30.9883L32.9463 30.9824L33.1465 30.9326L33.1621 30.9287L33.1768 30.9238C33.4689 30.8306 33.7862 30.8564 34.0596 30.9951C34.3331 31.134 34.5416 31.375 34.6387 31.666C34.7357 31.9569 34.7143 32.2746 34.5791 32.5498C34.4607 32.7907 34.263 32.982 34.0215 33.0938L33.916 33.1367C32.9502 33.4681 31.8955 33.4289 30.957 33.0264L30.9551 33.0254L30.7383 32.9268C30.5246 32.8217 30.3198 32.6978 30.127 32.5576L29.8945 32.3887L29.6318 32.5049C29.0177 32.7762 28.3447 32.889 27.6758 32.832C27.0903 32.7822 26.5238 32.6041 26.0166 32.3115L25.8037 32.1797L25.5576 32.001L18.2734 26.3359L18.0723 26.1797L17.8271 26.251C15.9972 26.785 14.0602 26.8412 12.2021 26.415C10.5856 26.0442 9.07511 25.319 7.77832 24.2949C11.1225 22.5744 14.1787 20.3415 16.8369 17.6768C19.504 15.0161 21.738 11.9551 23.459 8.60742ZM13.332 4.44727C15.653 4.1603 18.0016 4.61161 20.0488 5.72754C18.4821 9.02582 16.3607 12.0324 13.7734 14.6123H13.7725C11.1941 17.1973 8.19026 19.3169 4.89453 20.8828C3.77855 18.8361 3.32874 16.4872 3.61523 14.166C3.92031 11.6951 5.04243 9.39641 6.80273 7.63574C8.56308 5.87518 10.8612 4.75277 13.332 4.44727Z" stroke="url(#paint1_linear_6033_16866)" shape-rendering="crispEdges"/>
</g>
</g>
<defs>
<filter id="filter0_di_6033_16866" x="-3.96875" y="-1.13672" width="46.167" height="43.9961" filterUnits="userSpaceOnUse" color-interpolation-filters="sRGB">
<feFlood flood-opacity="0" result="BackgroundImageFix"/>
<feColorMatrix in="SourceAlpha" type="matrix" values="0 0 0 0 0 0 0 0 0 0 0 0 0 0 0 0 0 0 127 0" result="hardAlpha"/>
<feOffset dy="2"/>
<feGaussianBlur stdDeviation="3.5"/>
<feComposite in2="hardAlpha" operator="out"/>
<feColorMatrix type="matrix" values="0 0 0 0 0 0 0 0 0 0 0 0 0 0 0 0 0 0 0.1 0"/>
<feBlend mode="normal" in2="BackgroundImageFix" result="effect1_dropShadow_6033_16866"/>
<feBlend mode="normal" in="SourceGraphic" in2="effect1_dropShadow_6033_16866" result="shape"/>
<feColorMatrix in="SourceAlpha" type="matrix" values="0 0 0 0 0 0 0 0 0 0 0 0 0 0 0 0 0 0 127 0" result="hardAlpha"/>
<feOffset dy="2"/>
<feGaussianBlur stdDeviation="2"/>
<feComposite in2="hardAlpha" operator="arithmetic" k2="-1" k3="1"/>
<feColorMatrix type="matrix" values="0 0 0 0 0 0 0 0 0 0 0 0 0 0 0 0 0 0 0.5 0"/>
<feBlend mode="normal" in2="shape" result="effect2_innerShadow_6033_16866"/>
</filter>
<radialGradient id="paint0_radial_6033_16866" cx="0" cy="0" r="1" gradientUnits="userSpaceOnUse" gradientTransform="translate(19.1148 2.43488) rotate(90) scale(52.1367 55.9095)">
<stop stop-color="white"/>
<stop offset="1" stop-color="white" stop-opacity="0"/>
</radialGradient>
<linearGradient id="paint1_linear_6033_16866" x1="19.1148" y1="3.86328" x2="19.1148" y2="33.8597" gradientUnits="userSpaceOnUse">
<stop offset="0.735221" stop-color="white" stop-opacity="0"/>
<stop offset="1" stop-color="white" stop-opacity="0.8"/>
</linearGradient>
<clipPath id="clip0_6033_16866">
<rect width="40" height="40" fill="white"/>
</clipPath>
</defs>
</svg>
