<svg width="49" height="49" viewBox="0 0 49 49" fill="none" xmlns="http://www.w3.org/2000/svg">
<circle cx="24.5" cy="24.5" r="24.5" fill="url(#paint0_linear_6796_43712)"/>
<path fill-rule="evenodd" clip-rule="evenodd" d="M12 17C12 15.6739 12.5268 14.4021 13.4645 13.4645C14.4021 12.5268 15.6739 12 17 12H20V22H22V12H24V18H26V12H33C34.3261 12 35.5979 12.5268 36.5355 13.4645C37.4732 14.4021 38 15.6739 38 17V31C38 31.6566 37.8707 32.3068 37.6194 32.9134C37.3681 33.52 36.9998 34.0712 36.5355 34.5355C36.0712 34.9998 35.52 35.3681 34.9134 35.6194C34.3068 35.8707 33.6566 36 33 36H28V39C28 39.7956 27.6839 40.5587 27.1213 41.1213C26.5587 41.6839 25.7956 42 25 42C24.2044 42 23.4413 41.6839 22.8787 41.1213C22.3161 40.5587 22 39.7956 22 39V36H17C15.6739 36 14.4021 35.4732 13.4645 34.5355C12.5268 33.5979 12 32.3261 12 31V17ZM14 28V31C14 31.7956 14.3161 32.5587 14.8787 33.1213C15.4413 33.6839 16.2044 34 17 34H24V39C24 39.2652 24.1054 39.5196 24.2929 39.7071C24.4804 39.8946 24.7348 40 25 40C25.2652 40 25.5196 39.8946 25.7071 39.7071C25.8946 39.5196 26 39.2652 26 39V34H33C33.7956 34 34.5587 33.6839 35.1213 33.1213C35.6839 32.5587 36 31.7956 36 31V28H14Z" fill="white"/>
<defs>
<linearGradient id="paint0_linear_6796_43712" x1="24.5" y1="0" x2="24.5" y2="49" gradientUnits="userSpaceOnUse">
<stop stop-color="#6D2EC2"/>
<stop offset="1" stop-color="#B50189"/>
</linearGradient>
</defs>
</svg>
