<svg width="49" height="49" viewBox="0 0 49 49" fill="none" xmlns="http://www.w3.org/2000/svg">
<circle cx="24.5" cy="24.5" r="24.5" fill="url(#paint0_linear_6796_43762)"/>
<path d="M32.9163 12.5C35.3663 12.5 37.3663 14.4213 37.4938 16.84L37.5 17.0837V32.9163C37.5 35.3663 35.5788 37.3663 33.16 37.4938L32.9163 37.5H17.0837C15.9102 37.5001 14.7814 37.05 13.9298 36.2426C13.0781 35.4352 12.5687 34.3319 12.5063 33.16L12.5 32.9163V17.0837C12.5 14.6337 14.4213 12.6338 16.84 12.5063L17.0837 12.5H32.9163ZM29.375 27.5C28.8777 27.5 28.4008 27.6975 28.0492 28.0492C27.6975 28.4008 27.5 28.8777 27.5 29.375C27.5 29.8723 27.6975 30.3492 28.0492 30.7008C28.4008 31.0525 28.8777 31.25 29.375 31.25C29.8723 31.25 30.3492 31.0525 30.7008 30.7008C31.0525 30.3492 31.25 29.8723 31.25 29.375C31.25 28.8777 31.0525 28.4008 30.7008 28.0492C30.3492 27.6975 29.8723 27.5 29.375 27.5ZM20.625 27.5C20.1277 27.5 19.6508 27.6975 19.2992 28.0492C18.9475 28.4008 18.75 28.8777 18.75 29.375C18.75 29.8723 18.9475 30.3492 19.2992 30.7008C19.6508 31.0525 20.1277 31.25 20.625 31.25C21.1223 31.25 21.5992 31.0525 21.9508 30.7008C22.3025 30.3492 22.5 29.8723 22.5 29.375C22.5 28.8777 22.3025 28.4008 21.9508 28.0492C21.5992 27.6975 21.1223 27.5 20.625 27.5ZM20.625 18.75C20.1277 18.75 19.6508 18.9475 19.2992 19.2992C18.9475 19.6508 18.75 20.1277 18.75 20.625C18.75 21.1223 18.9475 21.5992 19.2992 21.9508C19.6508 22.3025 20.1277 22.5 20.625 22.5C21.1223 22.5 21.5992 22.3025 21.9508 21.9508C22.3025 21.5992 22.5 21.1223 22.5 20.625C22.5 20.1277 22.3025 19.6508 21.9508 19.2992C21.5992 18.9475 21.1223 18.75 20.625 18.75ZM29.375 18.75C28.8777 18.75 28.4008 18.9475 28.0492 19.2992C27.6975 19.6508 27.5 20.1277 27.5 20.625C27.5 21.1223 27.6975 21.5992 28.0492 21.9508C28.4008 22.3025 28.8777 22.5 29.375 22.5C29.8723 22.5 30.3492 22.3025 30.7008 21.9508C31.0525 21.5992 31.25 21.1223 31.25 20.625C31.25 20.1277 31.0525 19.6508 30.7008 19.2992C30.3492 18.9475 29.8723 18.75 29.375 18.75Z" fill="white"/>
<defs>
<linearGradient id="paint0_linear_6796_43762" x1="24.5" y1="0" x2="24.5" y2="49" gradientUnits="userSpaceOnUse">
<stop stop-color="#6D2EC2"/>
<stop offset="1" stop-color="#B50189"/>
</linearGradient>
</defs>
</svg>
