<svg width="20" height="20" viewBox="0 0 20 20" fill="none" xmlns="http://www.w3.org/2000/svg">
<path d="M9.2594 10.192V5.75556H8.01226C6.63083 5.75556 5.90262 4.85984 5.90262 3.98949C5.90262 3.08556 6.57226 2.54984 7.46798 2.54984C8.49762 2.54984 9.30119 3.34484 9.30119 4.67592V5.75556H10.699V4.67592C10.699 3.34484 11.5026 2.54984 12.5323 2.54984C13.428 2.54984 14.1058 3.08556 14.1058 3.98913C14.1058 4.85984 13.3523 5.75556 11.988 5.75556H10.7408V10.1923H16.6423C17.5544 10.1923 18.0483 9.84091 18.0483 8.9452V7.00306C18.0483 6.11591 17.5544 5.75592 16.6423 5.75592H14.6919C15.2108 5.28734 15.5205 4.65092 15.5205 3.93092C15.5205 2.31556 14.2398 1.15234 12.6158 1.15234C11.4105 1.15234 10.4312 1.82163 10.0044 3.01056C9.57726 1.82199 8.58976 1.15234 7.3844 1.15234C5.76869 1.15234 4.47976 2.31556 4.47976 3.93092C4.47976 4.65092 4.78119 5.28734 5.30833 5.75592H3.35833C2.49583 5.75592 1.9519 6.11591 1.9519 7.00306V8.9452C1.9519 9.84091 2.45405 10.1923 3.35798 10.1923L9.2594 10.192ZM9.2594 18.847V11.0877H3.14869V16.7209C3.14869 18.1188 3.96905 18.847 5.3669 18.847H9.2594ZM10.7408 11.0877V18.847H14.6333C16.0312 18.847 16.8512 18.1188 16.8512 16.7209V11.0877H10.7408Z" fill="white"/>
</svg>
