<svg width="49" height="49" viewBox="0 0 49 49" fill="none" xmlns="http://www.w3.org/2000/svg">
<circle cx="24.5" cy="24.5" r="24.5" fill="url(#paint0_linear_6796_43748)"/>
<g clip-path="url(#clip0_6796_43748)">
<path d="M30.7417 31.6673H37.2917C36.7417 24.409 33.6167 19.9007 29.6084 17.234L31.4334 13.2507C31.4885 13.1243 31.5115 12.9861 31.5001 12.8487C31.4888 12.7113 31.4435 12.5788 31.3683 12.4631C31.2932 12.3475 31.1905 12.2523 31.0695 12.1862C30.9485 12.12 30.8129 12.0849 30.675 12.084H19.25C19.1121 12.0849 18.9766 12.12 18.8556 12.1862C18.7346 12.2523 18.6319 12.3475 18.5568 12.4631C18.4816 12.5788 18.4363 12.7113 18.425 12.8487C18.4136 12.9861 18.4365 13.1243 18.4917 13.2507L19.4917 15.4173H27.925L27.175 17.084H25.6334C26.1037 18.3502 26.4498 19.6591 26.6667 20.9923C26.8058 21.8195 26.8949 22.6544 26.9334 23.4923L25.6167 24.4173C25.6204 23.3394 25.5312 22.2632 25.35 21.2007C25.1201 19.7864 24.7228 18.4045 24.1667 17.084H23.3334C22.5637 18.0553 21.8726 19.0863 21.2667 20.1673C20.7779 21.0944 20.3627 22.0585 20.025 23.0507L18.8834 22.2923C19.2173 21.3336 19.627 20.4029 20.1084 19.509C20.5958 18.6713 21.13 17.8617 21.7084 17.084H20.25L20.3167 17.2257C15.9 20.1673 12.5417 25.334 12.5417 33.959C12.5304 34.1403 12.5552 34.322 12.6146 34.4937C12.674 34.6654 12.7668 34.8236 12.8877 34.9592C13.0085 35.0948 13.1551 35.2051 13.3188 35.2837C13.4826 35.3624 13.6603 35.4078 13.8417 35.4173H20.5084C20.2221 35.1194 20.0245 34.7476 19.9376 34.3437C19.8507 33.9398 19.878 33.5196 20.0164 33.1303C20.1548 32.7411 20.3989 32.398 20.7213 32.1396C21.0436 31.8812 21.4316 31.7177 21.8417 31.6673C21.6421 31.3289 21.5357 30.9436 21.5334 30.5507C21.5334 29.9539 21.7704 29.3816 22.1924 28.9597C22.6143 28.5377 23.1866 28.3007 23.7834 28.3007H28.7834C29.3801 28.3007 29.9524 28.5377 30.3744 28.9597C30.7963 29.3816 31.0334 29.9539 31.0334 30.5507C31.0377 30.9422 30.9369 31.3278 30.7417 31.6673Z" fill="white"/>
<path d="M27.9999 33.7493C27.9999 33.5283 27.9121 33.3164 27.7558 33.1601C27.5996 33.0038 27.3876 32.916 27.1666 32.916H22.1666C21.9456 32.916 21.7336 33.0038 21.5773 33.1601C21.421 33.3164 21.3333 33.5283 21.3333 33.7493C21.3333 33.9704 21.421 34.1823 21.5773 34.3386C21.7336 34.4949 21.9456 34.5827 22.1666 34.5827H27.1666C27.3876 34.5827 27.5996 34.4949 27.7558 34.3386C27.9121 34.1823 27.9999 33.9704 27.9999 33.7493Z" fill="white"/>
<path d="M28.7833 29.584H23.7833C23.5623 29.584 23.3503 29.6718 23.194 29.8281C23.0377 29.9843 22.95 30.1963 22.95 30.4173C22.95 30.6383 23.0377 30.8503 23.194 31.0066C23.3503 31.1629 23.5623 31.2507 23.7833 31.2507H28.7833C29.0043 31.2507 29.2163 31.1629 29.3725 31.0066C29.5288 30.8503 29.6166 30.6383 29.6166 30.4173C29.6166 30.1963 29.5288 29.9843 29.3725 29.8281C29.2163 29.6718 29.0043 29.584 28.7833 29.584Z" fill="white"/>
<path d="M28.3333 36.25H23.3333C23.1123 36.25 22.9004 36.3378 22.7441 36.4941C22.5878 36.6504 22.5 36.8623 22.5 37.0833C22.5 37.3043 22.5878 37.5163 22.7441 37.6726C22.9004 37.8289 23.1123 37.9167 23.3333 37.9167H28.3333C28.5543 37.9167 28.7663 37.8289 28.9226 37.6726C29.0789 37.5163 29.1667 37.3043 29.1667 37.0833C29.1667 36.8623 29.0789 36.6504 28.9226 36.4941C28.7663 36.3378 28.5543 36.25 28.3333 36.25Z" fill="white"/>
<path d="M37.2499 36.25H31.4166C31.1956 36.25 30.9836 36.3378 30.8273 36.4941C30.671 36.6504 30.5833 36.8623 30.5833 37.0833C30.5833 37.3043 30.671 37.5163 30.8273 37.6726C30.9836 37.8289 31.1956 37.9167 31.4166 37.9167H37.2499C37.4709 37.9167 37.6829 37.8289 37.8392 37.6726C37.9955 37.5163 38.0833 37.3043 38.0833 37.0833C38.0833 36.8623 37.9955 36.6504 37.8392 36.4941C37.6829 36.3378 37.4709 36.25 37.2499 36.25Z" fill="white"/>
<path d="M38.0834 32.916H32.2501C32.0291 32.916 31.8171 33.0038 31.6608 33.1601C31.5045 33.3164 31.4167 33.5283 31.4167 33.7493C31.4167 33.9704 31.5045 34.1823 31.6608 34.3386C31.8171 34.4949 32.0291 34.5827 32.2501 34.5827H38.0834C38.3044 34.5827 38.5164 34.4949 38.6727 34.3386C38.829 34.1823 38.9167 33.9704 38.9167 33.7493C38.9167 33.5283 38.829 33.3164 38.6727 33.1601C38.5164 33.0038 38.3044 32.916 38.0834 32.916Z" fill="white"/>
</g>
<defs>
<linearGradient id="paint0_linear_6796_43748" x1="24.5" y1="0" x2="24.5" y2="49" gradientUnits="userSpaceOnUse">
<stop stop-color="#6D2EC2"/>
<stop offset="1" stop-color="#B50189"/>
</linearGradient>
<clipPath id="clip0_6796_43748">
<rect width="30" height="30" fill="white" transform="translate(10 10)"/>
</clipPath>
</defs>
</svg>
