<svg width="49" height="49" viewBox="0 0 49 49" fill="none" xmlns="http://www.w3.org/2000/svg">
<circle cx="24.5" cy="24.5" r="24.5" fill="url(#paint0_linear_6897_29184)"/>
<path d="M11.25 25C11.25 17.4062 17.4062 11.25 25 11.25C32.5938 11.25 38.75 17.4062 38.75 25C38.75 32.5938 32.5938 38.75 25 38.75C17.4062 38.75 11.25 32.5938 11.25 25ZM29.375 25C29.375 24.4255 29.2618 23.8566 29.042 23.3258C28.8221 22.795 28.4998 22.3127 28.0936 21.9064C27.6873 21.5002 27.205 21.1779 26.6742 20.958C26.1434 20.7382 25.5745 20.625 25 20.625C24.4255 20.625 23.8566 20.7382 23.3258 20.958C22.795 21.1779 22.3127 21.5002 21.9064 21.9064C21.5002 22.3127 21.1779 22.795 20.958 23.3258C20.7382 23.8566 20.625 24.4255 20.625 25C20.625 26.1603 21.0859 27.2731 21.9064 28.0936C22.7269 28.9141 23.8397 29.375 25 29.375C26.1603 29.375 27.2731 28.9141 28.0936 28.0936C28.9141 27.2731 29.375 26.1603 29.375 25ZM25 15.625H24.375V16.875H25C27.1549 16.875 29.2215 17.731 30.7452 19.2548C32.269 20.7785 33.125 22.8451 33.125 25V25.625H34.375V25C34.375 22.5136 33.3873 20.129 31.6291 18.3709C29.871 16.6127 27.4864 15.625 25 15.625Z" fill="white"/>
<defs>
<linearGradient id="paint0_linear_6897_29184" x1="24.5" y1="0" x2="24.5" y2="49" gradientUnits="userSpaceOnUse">
<stop stop-color="#6D2EC2"/>
<stop offset="1" stop-color="#B50189"/>
</linearGradient>
</defs>
</svg>
