<svg width="49" height="49" viewBox="0 0 49 49" fill="none" xmlns="http://www.w3.org/2000/svg">
<circle cx="24.5" cy="24.5" r="24.5" fill="url(#paint0_linear_6796_43740)"/>
<path d="M39.0625 17.9689C39.0625 17.9689 36.6903 22.9681 36.0483 25.5268C35.2087 28.8735 36.1701 31.4035 34.9499 34.6486C32.8406 38.4555 32.6978 39.0705 25.0001 39.0625C22.1798 39.0599 14.1004 36.9086 14.1004 36.9086C12.9865 36.6222 10.9375 36.7909 10.9375 35.5468C10.9375 34.3028 12.3953 33.3943 13.6896 33.3913L18.7891 33.8391C20.0277 33.7614 21.3254 33.0358 21.3648 31.4157C21.3442 29.0176 21.107 27.176 19.8897 25.2282L15.163 17.8533C14.8807 17.2662 14.8135 16.2651 15.6307 15.8182C16.4479 15.3713 17.3764 16.0356 17.6935 16.6141L22.9734 23.7959C23.537 24.3206 24.5401 24.4217 24.4546 23.3049L22.1232 12.6164C21.978 11.8571 22.3635 10.9375 23.2424 10.9375C24.3959 10.9375 25.1054 11.3778 25.083 12.075L27.6464 22.6209C27.8468 23.1342 28.5573 23.0656 28.7484 22.5922L29.4786 12.337C29.5161 12.0099 29.9428 11.4397 30.7618 11.5585C31.5807 11.6773 32.0529 12.5546 31.9662 12.8941L31.7293 23.027C31.8955 23.9251 32.6016 24.0562 33.1511 23.5548L36.7382 17.1396C36.9562 16.6015 37.8098 16.4894 38.3035 16.7028C38.7629 17.002 39.0626 17.4036 39.0626 17.9686L39.0625 17.9689Z" fill="white"/>
<defs>
<linearGradient id="paint0_linear_6796_43740" x1="24.5" y1="0" x2="24.5" y2="49" gradientUnits="userSpaceOnUse">
<stop stop-color="#6D2EC2"/>
<stop offset="1" stop-color="#B50189"/>
</linearGradient>
</defs>
</svg>
