<svg width="20" height="20" viewBox="0 0 20 20" fill="none" xmlns="http://www.w3.org/2000/svg">
<path d="M3.33342 9.99935C3.33342 9.77833 3.42121 9.56637 3.57749 9.41009C3.73377 9.25381 3.94573 9.16602 4.16675 9.16602H10.4917L8.57508 7.25768C8.49738 7.17998 8.43575 7.08774 8.3937 6.98622C8.35165 6.88471 8.33001 6.7759 8.33001 6.66602C8.33001 6.55613 8.35165 6.44733 8.3937 6.34581C8.43575 6.24429 8.49738 6.15205 8.57508 6.07435C8.65278 5.99665 8.74502 5.93502 8.84654 5.89297C8.94806 5.85092 9.05687 5.82927 9.16675 5.82927C9.27663 5.82927 9.38544 5.85092 9.48696 5.89297C9.58847 5.93502 9.68072 5.99665 9.75841 6.07435L13.0917 9.40768C13.1676 9.48694 13.2271 9.58039 13.2667 9.68268C13.3501 9.88557 13.3501 10.1131 13.2667 10.316C13.2271 10.4183 13.1676 10.5118 13.0917 10.591L9.75841 13.9243C9.68095 14.0025 9.58878 14.0645 9.48723 14.1068C9.38568 14.1491 9.27676 14.1708 9.16675 14.1708C9.05674 14.1708 8.94782 14.1491 8.84627 14.1068C8.74472 14.0645 8.65255 14.0025 8.57508 13.9243C8.49697 13.8469 8.43498 13.7547 8.39267 13.6532C8.35036 13.5516 8.32858 13.4427 8.32858 13.3327C8.32858 13.2227 8.35036 13.1138 8.39267 13.0122C8.43498 12.9107 8.49697 12.8185 8.57508 12.741L10.4917 10.8327H4.16675C3.94573 10.8327 3.73377 10.7449 3.57749 10.5886C3.42121 10.4323 3.33342 10.2204 3.33342 9.99935ZM5.83342 1.66602H14.1667C14.8298 1.66602 15.4657 1.92941 15.9345 2.39825C16.4034 2.86709 16.6667 3.50297 16.6667 4.16602V15.8327C16.6667 16.4957 16.4034 17.1316 15.9345 17.6004C15.4657 18.0693 14.8298 18.3327 14.1667 18.3327H5.83342C5.17037 18.3327 4.53449 18.0693 4.06565 17.6004C3.59681 17.1316 3.33342 16.4957 3.33342 15.8327V13.3327C3.33342 13.1117 3.42121 12.8997 3.57749 12.7434C3.73377 12.5871 3.94573 12.4993 4.16675 12.4993C4.38776 12.4993 4.59972 12.5871 4.756 12.7434C4.91228 12.8997 5.00008 13.1117 5.00008 13.3327V15.8327C5.00008 16.0537 5.08788 16.2657 5.24416 16.4219C5.40044 16.5782 5.6124 16.666 5.83342 16.666H14.1667C14.3878 16.666 14.5997 16.5782 14.756 16.4219C14.9123 16.2657 15.0001 16.0537 15.0001 15.8327V4.16602C15.0001 3.945 14.9123 3.73304 14.756 3.57676C14.5997 3.42048 14.3878 3.33268 14.1667 3.33268H5.83342C5.6124 3.33268 5.40044 3.42048 5.24416 3.57676C5.08788 3.73304 5.00008 3.945 5.00008 4.16602V6.66602C5.00008 6.88703 4.91228 7.09899 4.756 7.25527C4.59972 7.41155 4.38776 7.49935 4.16675 7.49935C3.94573 7.49935 3.73377 7.41155 3.57749 7.25527C3.42121 7.09899 3.33342 6.88703 3.33342 6.66602V4.16602C3.33342 3.50297 3.59681 2.86709 4.06565 2.39825C4.53449 1.92941 5.17037 1.66602 5.83342 1.66602Z" fill="white"/>
</svg>
