<svg width="34" height="30" viewBox="0 0 34 30" fill="none" xmlns="http://www.w3.org/2000/svg">
<path d="M24.3667 6.27992e-05H8.95C6.58648 -0.00438375 4.31753 0.927988 2.64003 2.59299C0.962535 4.25799 0.0132245 6.51991 0 8.8834V21.1001C0.00882568 23.4664 0.956196 25.7326 2.63417 27.4012C4.31214 29.0698 6.58361 30.0045 8.95 30.0001H24.3667C26.7346 30.0045 29.0078 29.0704 30.6884 27.4023C32.369 25.7341 33.3201 23.468 33.3333 21.1001V8.8834C33.3201 6.51702 32.3685 4.25257 30.6874 2.58709C29.0063 0.921614 26.7331 -0.00880408 24.3667 6.27992e-05ZM14.9667 15.9667C14.9977 16.8106 14.7959 17.6467 14.3833 18.3834C13.9866 19.0482 13.4084 19.5859 12.7167 19.9334C11.9835 20.3028 11.1707 20.4859 10.35 20.4667C9.43 20.4884 8.52089 20.264 7.71667 19.8167C6.95085 19.3745 6.3354 18.7126 5.95 17.9167C5.50379 17.0103 5.28092 16.0102 5.3 15.0001C5.3 14.2117 5.43 13.4301 5.68333 12.6834C5.92014 12.0602 6.28331 11.4928 6.75 11.0167C7.21785 10.5359 7.7873 10.1658 8.41667 9.9334C9.58564 9.48136 10.8747 9.44604 12.0667 9.8334C12.565 10.0001 13.0333 10.2484 13.45 10.5667C14.2623 11.2088 14.794 12.1407 14.9333 13.1667H12.6333C12.5531 12.8146 12.3791 12.4908 12.1296 12.2296C11.8802 11.9685 11.5647 11.7797 11.2167 11.6834C10.9515 11.6432 10.6818 11.6432 10.4167 11.6834C9.89853 11.6597 9.38612 11.8 8.95226 12.0842C8.51841 12.3685 8.1852 12.7822 8 13.2667C7.74952 13.8621 7.63015 14.5044 7.65 15.1501C7.63673 15.799 7.74995 16.4444 7.98333 17.0501C8.18833 17.5284 8.52333 17.9367 8.95 18.2334C9.38667 18.5134 9.89833 18.6534 10.4167 18.6334C10.865 18.6467 11.31 18.5551 11.7167 18.3667C12.0842 18.1844 12.3868 17.8935 12.5833 17.5334C12.7612 17.1942 12.8527 16.8164 12.85 16.4334H10.5167V14.7667H15.0167L14.9667 15.9667ZM19.0833 20.2001C19.0974 20.2377 19.0974 20.2791 19.0833 20.3167H16.9667V9.96673H19.0833C19.0936 9.99928 19.0936 10.0342 19.0833 10.0667V20.2001ZM27.9833 11.5667H23.3667C23.3593 11.5824 23.3554 11.5994 23.3554 11.6167C23.3554 11.634 23.3593 11.6511 23.3667 11.6667V13.9001C23.3616 13.9332 23.3616 13.9669 23.3667 14.0001H27.65V15.8667H23.3667C23.3564 15.8993 23.3564 15.9342 23.3667 15.9667V20.1334H21.2667V9.70006C21.2638 9.6819 21.2653 9.66333 21.271 9.64585C21.2767 9.62837 21.2864 9.61249 21.2994 9.59949C21.3124 9.58649 21.3283 9.57675 21.3458 9.57106C21.3633 9.56537 21.3818 9.56388 21.4 9.56673H27.9833V11.5667Z" fill="url(#paint0_linear_6993_29277)"/>
<defs>
<linearGradient id="paint0_linear_6993_29277" x1="9.66667" y1="3.61441" x2="19.4566" y2="28.7261" gradientUnits="userSpaceOnUse">
<stop stop-color="#FFF5DE"/>
<stop offset="1" stop-color="#CFA365"/>
</linearGradient>
</defs>
</svg>
