<svg width="40" height="40" viewBox="0 0 40 40" fill="none" xmlns="http://www.w3.org/2000/svg">
<path d="M19.9998 11.667C23.5361 11.667 26.9274 13.0718 29.4279 15.5723C31.9284 18.0728 33.3332 21.4641 33.3332 25.0004C33.3332 28.5366 31.9284 31.928 29.4279 34.4285C26.9274 36.9289 23.5361 38.3337 19.9998 38.3337C16.4636 38.3337 13.0722 36.9289 10.5717 34.4285C8.07126 31.928 6.6665 28.5366 6.6665 25.0004C6.6665 21.4641 8.07126 18.0728 10.5717 15.5723C13.0722 13.0718 16.4636 11.667 19.9998 11.667ZM19.9998 17.5004L17.7965 21.967L12.8665 22.6837L16.4332 26.1587L15.5915 31.0687L19.9998 28.7504L24.4082 31.067L23.5665 26.1587L27.1332 22.682L22.2032 21.9654L19.9998 17.5004ZM21.6665 3.33203L29.9998 3.3337V8.3337L27.7282 10.2304C25.8435 9.24055 23.7851 8.62479 21.6665 8.41703V3.33203ZM18.3332 3.33203V8.41536C16.2151 8.62333 14.1573 9.23909 12.2732 10.2287L9.99984 8.3337V3.3337L18.3332 3.33203Z" fill="url(#paint0_linear_6915_29849)"/>
<defs>
<linearGradient id="paint0_linear_6915_29849" x1="14.3998" y1="7.54903" x2="28.9017" y2="33.0551" gradientUnits="userSpaceOnUse">
<stop stop-color="#FFF5DE"/>
<stop offset="1" stop-color="#CFA365"/>
</linearGradient>
</defs>
</svg>
