<svg width="40" height="40" viewBox="0 0 40 40" fill="none" xmlns="http://www.w3.org/2000/svg">
<g clip-path="url(#clip0_6915_29834)">
<path d="M26.25 20C26.25 21.6576 25.5915 23.2473 24.4194 24.4194C23.2473 25.5915 21.6576 26.25 20 26.25C18.3424 26.25 16.7527 25.5915 15.5806 24.4194C14.4085 23.2473 13.75 21.6576 13.75 20C13.75 18.3424 14.4085 16.7527 15.5806 15.5806C16.7527 14.4085 18.3424 13.75 20 13.75C21.6576 13.75 23.2473 14.4085 24.4194 15.5806C25.5915 16.7527 26.25 18.3424 26.25 20Z" fill="url(#paint0_linear_6915_29834)"/>
<path d="M0 20C0 20 7.5 6.25 20 6.25C32.5 6.25 40 20 40 20C40 20 32.5 33.75 20 33.75C7.5 33.75 0 20 0 20ZM20 28.75C22.3206 28.75 24.5462 27.8281 26.1872 26.1872C27.8281 24.5462 28.75 22.3206 28.75 20C28.75 17.6794 27.8281 15.4538 26.1872 13.8128C24.5462 12.1719 22.3206 11.25 20 11.25C17.6794 11.25 15.4538 12.1719 13.8128 13.8128C12.1719 15.4538 11.25 17.6794 11.25 20C11.25 22.3206 12.1719 24.5462 13.8128 26.1872C15.4538 27.8281 17.6794 28.75 20 28.75Z" fill="url(#paint1_linear_6915_29834)"/>
</g>
<defs>
<linearGradient id="paint0_linear_6915_29834" x1="17.375" y1="15.256" x2="21.7713" y2="25.4051" gradientUnits="userSpaceOnUse">
<stop stop-color="#FFF5DE"/>
<stop offset="1" stop-color="#CFA365"/>
</linearGradient>
<linearGradient id="paint1_linear_6915_29834" x1="11.6" y1="9.5632" x2="18.8538" y2="33.9206" gradientUnits="userSpaceOnUse">
<stop stop-color="#FFF5DE"/>
<stop offset="1" stop-color="#CFA365"/>
</linearGradient>
<clipPath id="clip0_6915_29834">
<rect width="40" height="40" fill="white"/>
</clipPath>
</defs>
</svg>
