<svg width="38" height="34" viewBox="0 0 38 34" fill="none" xmlns="http://www.w3.org/2000/svg">
<path d="M31.0003 14.0082C33.7628 14.0082 36.0003 16.2457 36.0003 19.0082V22.1707C37.1628 22.5832 38.0003 23.6957 38.0003 25.002V31.002C38.0003 32.6582 36.6566 34.002 35.0003 34.002H27.0003C25.3441 34.002 24.0003 32.6582 24.0003 31.002V25.002C24.0003 23.6957 24.8378 22.5832 26.0003 22.1707V19.0082C26.0003 16.2457 28.2378 14.0082 31.0003 14.0082ZM14.7878 0.408231C15.5503 -0.173019 16.6441 -0.135519 17.3628 0.533231L28.9253 11.2707C25.5128 12.1895 23.0003 15.302 23.0003 19.002V20.527C21.7753 21.627 21.0003 23.2207 21.0003 24.9957V30.9957C21.0003 31.3395 21.0316 31.677 21.0816 32.002H7.00033C4.79408 32.002 3.00033 30.2082 3.00033 28.002V17.002H2.00033C1.17533 17.002 0.437829 16.4957 0.137829 15.7332C-0.162171 14.9707 0.0378293 14.0957 0.637829 13.5395L14.6378 0.539481L14.7878 0.414481V0.408231ZM15.0003 20.002C13.3441 20.002 12.0003 21.3457 12.0003 23.002V29.002H18.0003V23.5457C18.0003 22.5145 18.4378 21.577 19.1503 20.9145C18.6066 20.352 17.8441 20.002 17.0003 20.002H15.0003ZM31.0003 17.0082C29.8941 17.0082 29.0003 17.902 29.0003 19.0082V22.002H33.0003V19.0082C33.0003 17.902 32.1066 17.0082 31.0003 17.0082Z" fill="url(#paint0_linear_6993_29279)"/>
<defs>
<linearGradient id="paint0_linear_6993_29279" x1="11.0201" y1="4.09655" x2="22.0685" y2="32.6016" gradientUnits="userSpaceOnUse">
<stop stop-color="#FFF5DE"/>
<stop offset="1" stop-color="#CFA365"/>
</linearGradient>
</defs>
</svg>
