<svg width="40" height="40" viewBox="0 0 40 40" fill="none" xmlns="http://www.w3.org/2000/svg">
<path fill-rule="evenodd" clip-rule="evenodd" d="M27.4998 26.25C26.6956 26.2499 25.9055 26.4615 25.2088 26.8634C24.5122 27.2653 23.9336 27.8435 23.5312 28.5398C23.1287 29.2361 22.9166 30.0261 22.916 30.8303C22.9155 31.6346 23.1266 32.4248 23.5282 33.1217L29.7882 26.8617C29.0925 26.4601 28.3031 26.2491 27.4998 26.25ZM31.5332 28.6533L25.3198 34.8667C26.1883 35.3372 27.1855 35.5147 28.163 35.3725C29.1405 35.2304 30.0459 34.7763 30.7443 34.0778C31.4428 33.3794 31.8969 32.474 32.039 31.4965C32.1812 30.519 32.0038 29.5218 31.5332 28.6533ZM20.4165 30.8333C20.4165 29.9031 20.5997 28.982 20.9557 28.1227C21.3117 27.2633 21.8334 26.4824 22.4912 25.8247C23.1489 25.1669 23.9298 24.6452 24.7892 24.2892C25.6486 23.9332 26.5696 23.75 27.4998 23.75C28.43 23.75 29.3511 23.9332 30.2105 24.2892C31.0699 24.6452 31.8508 25.1669 32.5085 25.8247C33.1663 26.4824 33.688 27.2633 34.044 28.1227C34.4 28.982 34.5832 29.9031 34.5832 30.8333C34.5832 32.712 33.8369 34.5136 32.5085 35.842C31.1801 37.1704 29.3785 37.9167 27.4998 37.9167C25.6212 37.9167 23.8195 37.1704 22.4912 35.842C21.1628 34.5136 20.4165 32.712 20.4165 30.8333Z" fill="url(#paint0_linear_6915_29876)"/>
<path d="M26.6665 10.0007C26.6665 11.7688 25.9641 13.4645 24.7139 14.7147C23.4636 15.9649 21.7679 16.6673 19.9998 16.6673C18.2317 16.6673 16.536 15.9649 15.2858 14.7147C14.0355 13.4645 13.3332 11.7688 13.3332 10.0007C13.3332 8.23254 14.0355 6.53685 15.2858 5.28661C16.536 4.03636 18.2317 3.33398 19.9998 3.33398C21.7679 3.33398 23.4636 4.03636 24.7139 5.28661C25.9641 6.53685 26.6665 8.23254 26.6665 10.0007ZM23.8248 21.9806C22.468 22.5445 21.2589 23.4127 20.291 24.5182C19.3231 25.6236 18.6222 26.9368 18.2426 28.3562C17.8629 29.7757 17.8146 31.2634 18.1014 32.7044C18.3882 34.1455 19.0023 35.5014 19.8965 36.6673C6.6665 36.6507 6.6665 33.299 6.6665 29.1673C6.6665 25.0257 12.6365 21.6673 19.9998 21.6673C21.3298 21.6673 22.6132 21.7773 23.8248 21.9806Z" fill="url(#paint1_linear_6915_29876)"/>
<defs>
<linearGradient id="paint0_linear_6915_29876" x1="24.5248" y1="25.4568" x2="29.5073" y2="36.9591" gradientUnits="userSpaceOnUse">
<stop stop-color="#FFF5DE"/>
<stop offset="1" stop-color="#CFA365"/>
</linearGradient>
<linearGradient id="paint1_linear_6915_29876" x1="12.4665" y1="7.34998" x2="27.721" y2="28.4795" gradientUnits="userSpaceOnUse">
<stop stop-color="#FFF5DE"/>
<stop offset="1" stop-color="#CFA365"/>
</linearGradient>
</defs>
</svg>
