<svg width="34" height="37" viewBox="0 0 34 37" fill="none" xmlns="http://www.w3.org/2000/svg">
<path d="M15 0C12.7899 0 10.6702 0.877974 9.10744 2.44078C7.54464 4.00358 6.66667 6.1232 6.66667 8.33333C6.66667 10.5435 7.54464 12.6631 9.10744 14.2259C10.6702 15.7887 12.7899 16.6667 15 16.6667C17.2101 16.6667 19.3298 15.7887 20.8926 14.2259C22.4554 12.6631 23.3333 10.5435 23.3333 8.33333C23.3333 6.1232 22.4554 4.00358 20.8926 2.44078C19.3298 0.877974 17.2101 0 15 0ZM15.205 20.9167C15.3662 20.6567 15.4528 20.3573 15.4552 20.0513C15.4576 19.7454 15.3757 19.4447 15.2185 19.1822C15.0614 18.9197 14.835 18.7056 14.5642 18.5632C14.2934 18.4208 13.9887 18.3557 13.6833 18.375C10 18.6083 6.69167 19.805 4.265 21.3967C3.05167 22.1933 2.01833 23.115 1.27167 24.1133C0.533333 25.095 0 26.2583 0 27.5C0 30.0583 2.13 31.41 4.15833 32.105C6.29167 32.8367 9.14167 33.1683 12.2117 33.2833C12.4772 33.2935 12.7413 33.24 12.9819 33.1274C13.2225 33.0147 13.4328 32.8462 13.595 32.6358C13.7573 32.4254 13.8669 32.1793 13.9148 31.9179C13.9626 31.6566 13.9472 31.3876 13.87 31.1333C13.5132 29.9553 13.3324 28.7309 13.3333 27.5C13.3291 25.1737 13.9775 22.8928 15.205 20.9167ZM25.685 31.3033C25.229 31.3381 24.771 31.3381 24.315 31.3033L24.17 31.845C24.0555 32.272 23.7761 32.636 23.3932 32.857C23.0103 33.078 22.5553 33.1378 22.1283 33.0233C21.7013 32.9088 21.3373 32.6294 21.1163 32.2465C20.8953 31.8637 20.8355 31.4087 20.95 30.9817L21.1 30.42C20.6978 30.22 20.3128 29.9867 19.945 29.72L19.5117 30.1517C19.1973 30.4553 18.7763 30.6233 18.3393 30.6195C17.9023 30.6157 17.4843 30.4404 17.1753 30.1314C16.8663 29.8224 16.691 29.4043 16.6872 28.9673C16.6834 28.5303 16.8514 28.1093 17.155 27.795L17.705 27.2433C17.3376 26.613 17.0483 25.9402 16.8433 25.24C16.7178 24.8161 16.7658 24.3597 16.9768 23.9712C17.1878 23.5827 17.5444 23.2939 17.9683 23.1683C18.3922 23.0428 18.8486 23.0908 19.2372 23.3018C19.6257 23.5128 19.9145 23.8694 20.04 24.2933C21.5033 29.2317 28.4967 29.2317 29.96 24.2933C30.0222 24.0834 30.1251 23.8878 30.2628 23.7177C30.4006 23.5476 30.5705 23.4062 30.7628 23.3018C30.9552 23.1973 31.1663 23.1318 31.384 23.1089C31.6017 23.086 31.8218 23.1062 32.0317 23.1683C32.2416 23.2305 32.4372 23.3334 32.6073 23.4711C32.7774 23.6089 32.9188 23.7788 33.0232 23.9712C33.1277 24.1635 33.1932 24.3746 33.2161 24.5923C33.239 24.81 33.2188 25.0301 33.1567 25.24C32.94 25.9733 32.6467 26.6417 32.2933 27.2433L32.845 27.7933C33.1577 28.1058 33.3335 28.5298 33.3337 28.9719C33.3338 29.414 33.1583 29.8381 32.8458 30.1508C32.5333 30.4636 32.1094 30.6393 31.6673 30.6395C31.2251 30.6397 30.8011 30.4642 30.4883 30.1517L30.055 29.7183C29.6861 29.985 29.3011 30.2189 28.9 30.42L29.05 30.9817C29.1645 31.4087 29.1047 31.8637 28.8837 32.2465C28.6627 32.6294 28.2987 32.9088 27.8717 33.0233C27.4447 33.1378 26.9897 33.078 26.6068 32.857C26.2239 32.636 25.9445 32.272 25.83 31.845L25.685 31.3033Z" fill="url(#paint0_linear_6993_29270)"/>
<defs>
<linearGradient id="paint0_linear_6993_29270" x1="9.66677" y1="4.01012" x2="21.3613" y2="31.0474" gradientUnits="userSpaceOnUse">
<stop stop-color="#FFF5DE"/>
<stop offset="1" stop-color="#CFA365"/>
</linearGradient>
</defs>
</svg>
