<?xml version="1.0" encoding="utf-8"?>
<svg viewBox="0 0 500 500" xmlns="http://www.w3.org/2000/svg">
  <defs/>
  <path d="M 275 159.091 L 400 159.091 M 275 231.818 L 350 231.818 M 212.5 177.272 C 212.5 207.381 195.7 231.818 175 231.818 C 154.3 231.818 137.5 207.381 137.5 177.272 C 137.5 147.163 154.3 122.727 175 122.727 C 195.7 122.727 212.5 147.163 212.5 177.272 Z M 141.475 304.545 L 208.525 304.545 C 214.55 304.545 217.575 304.545 220.275 305.091 C 229.6 307.054 237.675 313.818 242.2 323.563 C 243.5 326.363 244.475 329.709 246.375 336.4 C 248.675 344.436 249.8 348.436 249.975 351.672 C 250.525 363.091 244.15 373.418 234.7 376.436 C 232.025 377.272 228.4 377.272 221.15 377.272 L 128.85 377.272 C 121.6 377.272 117.975 377.272 115.3 376.436 C 105.85 373.418 99.475 363.091 100.025 351.672 C 100.175 348.436 101.325 344.436 103.625 336.4 C 105.525 329.709 106.475 326.363 107.8 323.563 C 112.325 313.818 120.4 307.054 129.725 305.091 C 132.425 304.545 135.45 304.545 141.475 304.545 Z M 100 450 L 400 450 C 423.575 450 435.35 450 442.675 439.345 C 450 428.691 450 411.563 450 377.272 L 450 122.727 C 450 88.436 450 71.309 442.675 60.654 C 435.35 50 423.575 50 400 50 L 100 50 C 76.425 50 64.65 50 57.325 60.654 C 50 71.309 50 88.436 50 122.727 L 50 377.272 C 50 411.563 50 428.691 57.325 439.345 C 64.65 450 76.425 450 100 450 Z" stroke-linecap="round" stroke-linejoin="round" style="fill: none; stroke: rgb(185, 185, 185); stroke-width: 25px;"/>
</svg>