<svg width="18" height="20" viewBox="0 0 18 20" fill="none" xmlns="http://www.w3.org/2000/svg">
<path d="M0.595703 1.86621C2.10145 0.688942 3.53073 0.386097 4.91309 0.535156C6.25749 0.68027 7.55095 1.25377 8.79883 1.81152L8.84961 1.83496L8.85254 1.83594C10.1314 2.40632 11.3673 2.95662 12.6396 3.09375C13.8935 3.22972 15.1928 2.96354 16.5957 1.86719C16.6326 1.83836 16.6771 1.82037 16.7236 1.81543C16.7702 1.81051 16.8173 1.81841 16.8594 1.83887C16.9015 1.85937 16.9371 1.89195 16.9619 1.93164C16.9866 1.97123 16.9999 2.01682 17 2.06348V13.4375C17 13.4754 16.9912 13.5128 16.9746 13.5469C16.958 13.5808 16.934 13.6105 16.9043 13.6338C15.3985 14.8111 13.9693 15.1139 12.5869 14.9648C11.2424 14.8197 9.9485 14.247 8.70117 13.6885L8.69629 13.6865L8.64258 13.6631H8.6416C7.36443 13.0925 6.13029 12.543 4.85938 12.4072H4.86035C3.70272 12.2817 2.50153 12.4973 1.21191 13.4053L1 13.5547V18.75C1 18.8163 0.973618 18.8799 0.926758 18.9268C0.879873 18.9736 0.816304 19 0.75 19C0.683696 19 0.620126 18.9736 0.573242 18.9268C0.526382 18.8799 0.5 18.8163 0.5 18.75V2.0625C0.500057 2.02468 0.508822 1.98713 0.525391 1.95312C0.541962 1.91921 0.566007 1.88951 0.595703 1.86621Z" fill="url(#paint0_linear_6649_15109)" stroke="url(#paint1_linear_6649_15109)"/>
<defs>
<linearGradient id="paint0_linear_6649_15109" x1="8.75" y1="0" x2="8.75" y2="19.5001" gradientUnits="userSpaceOnUse">
<stop stop-color="#6D2EC2"/>
<stop offset="1" stop-color="#B50189"/>
</linearGradient>
<linearGradient id="paint1_linear_6649_15109" x1="8.75" y1="0" x2="8.75" y2="19.5001" gradientUnits="userSpaceOnUse">
<stop offset="0.735221" stop-color="white" stop-opacity="0"/>
<stop offset="1" stop-color="white" stop-opacity="0.8"/>
</linearGradient>
</defs>
</svg>
