<svg width="24" height="24" viewBox="0 0 24 24" fill="none" xmlns="http://www.w3.org/2000/svg">
<path d="M21.6242 13.8537C21.8104 13.9908 21.9492 14.1825 22.0214 14.4021C22.0936 14.6217 22.0956 14.8584 22.027 15.0792C21.5516 16.5991 20.7429 17.9938 19.66 19.1615C19.5036 19.3291 19.2992 19.4441 19.0747 19.4907C18.8503 19.5373 18.6169 19.5132 18.4067 19.4217L16.9405 18.7782C16.7803 18.7069 16.6057 18.674 16.4305 18.6822C16.256 18.6924 16.0863 18.7438 15.9355 18.8322C15.7845 18.9196 15.6563 19.0416 15.5615 19.1881C15.4667 19.3347 15.408 19.5016 15.3902 19.6752L15.214 21.2727C15.1886 21.5001 15.0936 21.7141 14.9418 21.8855C14.7901 22.0568 14.5892 22.177 14.3665 22.2297C12.8095 22.601 11.1865 22.601 9.6295 22.2297C9.40837 22.1762 9.20894 22.0562 9.05808 21.8859C8.90722 21.7156 8.81218 21.5032 8.78575 21.2772L8.6095 19.6827C8.57903 19.411 8.44953 19.16 8.24575 18.9777C8.08643 18.8372 7.89059 18.7447 7.68089 18.7108C7.47118 18.677 7.25618 18.7032 7.06075 18.7865L5.5945 19.4307C5.38493 19.5222 5.15218 19.5466 4.92819 19.5005C4.70421 19.4545 4.49997 19.3402 4.3435 19.1735C3.25879 18.0046 2.44905 16.608 1.9735 15.086C1.90531 14.8654 1.90738 14.6292 1.9794 14.4099C2.05142 14.1906 2.18984 13.9991 2.3755 13.862L3.66925 12.9057C3.81062 12.8021 3.92558 12.6666 4.00482 12.5102C4.08406 12.3538 4.12536 12.181 4.12536 12.0057C4.12536 11.8304 4.08406 11.6576 4.00482 11.5012C3.92558 11.3449 3.81062 11.2094 3.66925 11.1057L2.3755 10.151C2.19084 10.0145 2.05301 9.82423 1.98102 9.60623C1.90902 9.38822 1.9064 9.15326 1.9735 8.9337C2.44892 7.41284 3.25842 6.01755 4.34275 4.84995C4.44775 4.7367 4.57525 4.6467 4.71775 4.5867C4.85655 4.52791 5.00576 4.49762 5.1565 4.49762C5.30724 4.49762 5.45644 4.52791 5.59525 4.5867L7.0555 5.2302C7.21615 5.29921 7.39072 5.32963 7.56524 5.31904C7.73976 5.30845 7.90937 5.25715 8.0605 5.16923C8.21163 5.08131 8.34007 4.95922 8.43553 4.81274C8.53099 4.66626 8.59083 4.49946 8.61025 4.3257L8.78725 2.7342C8.81299 2.5044 8.90977 2.28834 9.0641 2.11613C9.21843 1.94392 9.42263 1.82413 9.64825 1.77345C10.4234 1.60244 11.214 1.51146 12.0077 1.50195C12.7967 1.51095 13.5827 1.6017 14.353 1.77345C14.5791 1.82378 14.7838 1.94377 14.9381 2.11653C15.0924 2.28929 15.1886 2.50611 15.2132 2.73645L15.3902 4.32645C15.409 4.49995 15.4683 4.6666 15.5634 4.81292C15.6585 4.95925 15.7867 5.08115 15.9376 5.16876C16.0885 5.25638 16.258 5.30725 16.4322 5.31728C16.6064 5.3273 16.7805 5.29619 16.9405 5.22645L18.4 4.5837C18.6105 4.49212 18.8441 4.4679 19.0689 4.51436C19.2937 4.56082 19.4986 4.67569 19.6555 4.8432C20.7392 6.00959 21.5482 7.40363 22.0232 8.9232C22.0919 9.14353 22.09 9.37981 22.0178 9.599C21.9456 9.8182 21.8067 10.0093 21.6205 10.1457L20.3305 11.1005C20.1886 11.2032 20.073 11.338 19.9931 11.494C19.9133 11.65 19.8716 11.8226 19.8713 11.9978C19.871 12.173 19.9122 12.3458 19.9915 12.502C20.0708 12.6583 20.1859 12.7935 20.3275 12.8967L21.6242 13.8537ZM12.0002 14.9997C12.7959 14.9997 13.559 14.6836 14.1216 14.121C14.6842 13.5584 15.0002 12.7954 15.0002 11.9997C15.0002 11.2041 14.6842 10.441 14.1216 9.87838C13.559 9.31577 12.7959 8.9997 12.0002 8.9997C11.2046 8.9997 10.4415 9.31577 9.87893 9.87838C9.31632 10.441 9.00025 11.2041 9.00025 11.9997C9.00025 12.7954 9.31632 13.5584 9.87893 14.121C10.4415 14.6836 11.2046 14.9997 12.0002 14.9997Z" fill="white"/>
</svg>
