<svg width="18" height="21" viewBox="0 0 18 21" fill="none" xmlns="http://www.w3.org/2000/svg">
<path d="M8.85742 0.274414C12.8046 2.00595 15.6083 6.22836 15.6084 11.1816C15.6084 12.1727 15.4959 13.1352 15.2842 14.0547L15.251 14.1992L15.3623 14.2979L17.3818 16.0938C17.4252 16.1323 17.454 16.1848 17.4629 16.2422C17.4717 16.2995 17.4603 16.3584 17.4307 16.4082L14.9727 20.5039C14.9531 20.5364 14.9264 20.5643 14.8945 20.585C14.8627 20.6056 14.8267 20.6184 14.7891 20.623C14.7514 20.6277 14.7127 20.6237 14.6768 20.6113C14.6411 20.599 14.6087 20.5785 14.582 20.5518L12.3281 18.2979C12.0938 18.0635 11.7757 17.9318 11.4443 17.9316H6.27246C5.94115 17.9317 5.623 18.0636 5.38867 18.2979L3.13477 20.5518C3.10796 20.5786 3.07489 20.599 3.03906 20.6113C3.00316 20.6237 2.96444 20.6277 2.92676 20.623C2.88924 20.6184 2.85301 20.6056 2.82129 20.585C2.78953 20.5643 2.76269 20.5364 2.74316 20.5039L0.285156 16.4092C0.255403 16.3593 0.244146 16.3006 0.25293 16.2432C0.261786 16.1856 0.29039 16.1324 0.333984 16.0938L2.35449 14.2979L2.46484 14.1992L2.43164 14.0547C2.21582 13.1126 2.1076 12.1491 2.1084 11.1826V11.1816C2.10853 6.22885 4.91085 2.00627 8.85742 0.274414ZM8.8584 6.93164C8.26181 6.93164 7.6895 7.16906 7.26758 7.59082C6.84571 8.01269 6.60849 8.58503 6.6084 9.18164C6.6084 9.77838 6.84562 10.3515 7.26758 10.7734C7.68949 11.1951 8.26187 11.4316 8.8584 11.4316C9.45496 11.4316 10.0273 11.1952 10.4492 10.7734C10.8712 10.3515 11.1084 9.77838 11.1084 9.18164C11.1083 8.58503 10.8711 8.01269 10.4492 7.59082C10.0273 7.16895 9.45502 6.93171 8.8584 6.93164Z" fill="url(#paint0_linear_6649_15107)" stroke="url(#paint1_linear_6649_15107)" stroke-width="0.5"/>
<defs>
<linearGradient id="paint0_linear_6649_15107" x1="8.85793" y1="0" x2="8.85793" y2="20.8754" gradientUnits="userSpaceOnUse">
<stop stop-color="#6D2EC2"/>
<stop offset="1" stop-color="#B50189"/>
</linearGradient>
<linearGradient id="paint1_linear_6649_15107" x1="8.85793" y1="0" x2="8.85793" y2="20.8754" gradientUnits="userSpaceOnUse">
<stop offset="0.735221" stop-color="white" stop-opacity="0"/>
<stop offset="1" stop-color="white" stop-opacity="0.8"/>
</linearGradient>
</defs>
</svg>
